<?xml version="1.0" encoding="utf-8"?>
<!-- Generator: Adobe Illustrator 28.0.0, SVG Export Plug-In . SVG Version: 6.00 Build 0)  -->
<svg version="1.1" id="Слой_1" xmlns="http://www.w3.org/2000/svg" xmlns:xlink="http://www.w3.org/1999/xlink" x="0px" y="0px"
	 viewBox="0 0 48 48" style="enable-background:new 0 0 48 48;" xml:space="preserve">
<style type="text/css">
	.st0{fill:#B8B8B9;}
	.st1{fill:#C4C5D4;}
	.st2{fill:#868787;}
	.st3{fill:#674320;}
	.st4{fill:#595858;}
	.st5{fill:#BFBEBE;}
	.st6{fill:#E53B23;}
	.st7{fill:#EA8E1F;}
	.st8{fill:#A3A1A1;}
	.st9{fill:none;stroke:#4A2C19;stroke-miterlimit:10;}
	.st10{fill:#4A2C19;}
</style>
<g>
	<rect x="11.1" y="28.5" class="st0" width="28.9" height="19"/>
	<g>
		<rect x="5.5" y="23.2" class="st1" width="8.1" height="24.4"/>
		<polygon class="st2" points="13.5,23.2 5.5,23.2 3.3,21.3 16.1,21.3 		"/>
		<rect x="3.3" y="16.6" class="st1" width="12.8" height="4.7"/>
		<rect x="3.3" y="15.3" class="st1" width="1.3" height="1.3"/>
		<rect x="14.8" y="15.3" class="st1" width="1.3" height="1.3"/>
		<rect x="11.9" y="15.3" class="st1" width="1.3" height="1.3"/>
		<rect x="9" y="15.3" class="st1" width="1.3" height="1.3"/>
		<rect x="6.1" y="15.3" class="st1" width="1.3" height="1.3"/>
	</g>
	<g>
		<rect x="46" y="15.3" class="st1" width="1.3" height="1.3"/>
		<rect x="36.6" y="23.2" class="st1" width="8.1" height="24.4"/>
		<polygon class="st2" points="44.7,23.2 36.6,23.2 34.4,21.3 47.2,21.3 		"/>
		<rect x="34.4" y="16.6" class="st1" width="12.8" height="4.7"/>
		<rect x="34.4" y="15.3" class="st1" width="1.3" height="1.3"/>
		<rect x="43.1" y="15.3" class="st1" width="1.3" height="1.3"/>
		<rect x="40.2" y="15.3" class="st1" width="1.3" height="1.3"/>
		<rect x="37.3" y="15.3" class="st1" width="1.3" height="1.3"/>
	</g>
	<rect x="21.4" y="16.1" class="st1" width="8.1" height="12.5"/>
	<polygon class="st2" points="29.5,16.1 21.4,16.1 19.2,14.2 32,14.2 	"/>
	<rect x="19.2" y="9.5" class="st1" width="12.8" height="4.7"/>
	<rect x="19.2" y="8.2" class="st1" width="1.3" height="1.3"/>
	<rect x="30.7" y="8.2" class="st1" width="1.3" height="1.3"/>
	<rect x="27.8" y="8.2" class="st1" width="1.3" height="1.3"/>
	<rect x="24.9" y="8.2" class="st1" width="1.3" height="1.3"/>
	<rect x="22.1" y="8.2" class="st1" width="1.3" height="1.3"/>
	<g>
		<rect x="14.4" y="27.3" class="st0" width="1.3" height="1.3"/>
		<rect x="25.9" y="27.3" class="st0" width="1.3" height="1.3"/>
		<rect x="23" y="27.3" class="st0" width="1.3" height="1.3"/>
		<rect x="20.1" y="27.3" class="st0" width="1.3" height="1.3"/>
		<rect x="17.2" y="27.3" class="st0" width="1.3" height="1.3"/>
	</g>
	<g>
		<rect x="28.7" y="27.3" class="st0" width="1.3" height="1.3"/>
		<rect x="34.4" y="27.3" class="st0" width="1.3" height="1.3"/>
		<rect x="31.6" y="27.3" class="st0" width="1.3" height="1.3"/>
	</g>
	<g>
		<path class="st3" d="M30,46c0-4.4-1.9-7.9-4.3-7.9c-2.3,0-4.3,3.6-4.3,7.9c0,0.5,0,1.1,0.1,1.6h8.3C30,47.1,30,46.5,30,46z"/>
	</g>
	<g>
		<path class="st4" d="M27.1,22.3c0-1.9-0.8-3.5-1.7-3.5c-0.9,0-1.7,1.6-1.7,3.5c0,0.2,0,0.5,0,0.7h3.3
			C27.1,22.7,27.1,22.5,27.1,22.3z"/>
	</g>
	<g>
		<path class="st4" d="M11.3,28.7c0-1.9-0.8-3.5-1.7-3.5c-0.9,0-1.7,1.6-1.7,3.5c0,0.2,0,0.5,0,0.7h3.3
			C11.3,29.1,11.3,28.9,11.3,28.7z"/>
	</g>
	<g>
		<path class="st4" d="M42.5,27.9c0-1.9-0.8-3.5-1.7-3.5c-0.9,0-1.7,1.6-1.7,3.5c0,0.2,0,0.5,0,0.7h3.3
			C42.5,28.3,42.5,28.1,42.5,27.9z"/>
	</g>
	<rect x="24" y="0.7" class="st5" width="0.7" height="8.8"/>
	<g>
		<path class="st6" d="M24.7,2.7c-2.5-1.4-5,1.4-7.4,0C18,2.8,18.7,2.5,19.4,2c-0.7-0.2-1.5-0.6-2.2-1.4c2.5,1.4,5-1.4,7.4,0
			C24.7,1.3,24.7,2,24.7,2.7z"/>
	</g>
	<rect x="41.6" y="7.7" class="st5" width="0.7" height="8.8"/>
	<g>
		<path class="st7" d="M42.3,9.8c-2.5-1.4-5,1.4-7.4,0c0.7,0.1,1.5-0.2,2.2-0.7c-0.7-0.2-1.5-0.6-2.2-1.4c2.5,1.4,5-1.4,7.4,0
			C42.3,8.4,42.3,9.1,42.3,9.8z"/>
	</g>
	<rect x="8" y="7.7" class="st5" width="0.7" height="8.8"/>
	<g>
		<path class="st7" d="M8.7,9.8c-2.5-1.4-5,1.4-7.4,0C2,9.9,2.7,9.6,3.5,9.1C2.7,8.9,2,8.5,1.2,7.7c2.5,1.4,5-1.4,7.4,0
			C8.7,8.4,8.7,9.1,8.7,9.8z"/>
	</g>
	<rect x="6.3" y="35.6" class="st0" width="1.8" height="0.9"/>
	<rect x="8.1" y="38.3" class="st0" width="1.8" height="0.9"/>
	<rect x="10.8" y="43.1" class="st0" width="1.8" height="0.9"/>
	<rect x="40.3" y="37.1" class="st0" width="1.8" height="0.9"/>
	<rect x="38" y="31.2" class="st0" width="1.8" height="0.9"/>
	<rect x="39.9" y="44.1" class="st0" width="1.8" height="0.9"/>
	<rect x="4" y="17.9" class="st0" width="1.8" height="0.9"/>
	<rect x="7.2" y="19.3" class="st0" width="1.8" height="0.9"/>
	<rect x="10.9" y="17.7" class="st0" width="1.8" height="0.9"/>
	<rect x="13.6" y="34.9" class="st8" width="1.8" height="0.9"/>
	<rect x="17.2" y="38.5" class="st8" width="1.8" height="0.9"/>
	<rect x="20.6" y="34.4" class="st8" width="1.8" height="0.9"/>
	<rect x="30.5" y="39.4" class="st8" width="1.8" height="0.9"/>
	<rect x="30.5" y="34.9" class="st8" width="1.8" height="0.9"/>
	<rect x="33.8" y="44" class="st8" width="1.8" height="0.9"/>
	<rect x="17.1" y="44.4" class="st8" width="1.8" height="0.9"/>
	<rect x="13.6" y="41.5" class="st8" width="1.3" height="0.9"/>
	<rect x="20.1" y="10.4" class="st0" width="1.8" height="0.9"/>
	<rect x="24.7" y="12.1" class="st0" width="1.8" height="0.9"/>
	<rect x="27.8" y="10.4" class="st0" width="1.8" height="0.9"/>
	<rect x="34.4" y="17.9" class="st0" width="1.8" height="0.9"/>
	<rect x="40.2" y="18.9" class="st0" width="1.8" height="0.9"/>
	<rect x="45.4" y="17.5" class="st0" width="1.8" height="0.9"/>
	<rect x="28.6" y="17.2" class="st0" width="0.9" height="0.9"/>
	<rect x="21.4" y="23.4" class="st0" width="1.4" height="0.9"/>
	<rect x="22.6" y="17.2" class="st0" width="1.5" height="0.9"/>
	<rect x="28.1" y="25.3" class="st0" width="1.4" height="0.9"/>
	<rect x="36.6" y="25" class="st0" width="1.4" height="0.9"/>
	<rect x="43.4" y="31.1" class="st0" width="1.4" height="0.9"/>
	<rect x="36.6" y="34.6" class="st0" width="1.4" height="0.9"/>
	<rect x="36.6" y="40" class="st0" width="1.4" height="0.9"/>
	<rect x="30.9" y="12.6" class="st0" width="1.1" height="0.9"/>
	<rect x="10.2" y="31.2" class="st0" width="1.8" height="0.9"/>
	<rect x="15.7" y="30.2" class="st4" width="1.7" height="2"/>
	<rect x="20" y="30.2" class="st4" width="1.7" height="2"/>
	<rect x="24.3" y="30.2" class="st4" width="1.7" height="2"/>
	<rect x="28.6" y="30.2" class="st4" width="1.7" height="2"/>
	<rect x="32.8" y="30.2" class="st4" width="1.7" height="2"/>
	<line class="st9" x1="25.8" y1="38.1" x2="25.8" y2="47.6"/>
	<path class="st10" d="M25.1,44.1c0,0.2-0.1,0.3-0.3,0.3c-0.2,0-0.3-0.1-0.3-0.3c0-0.2,0.1-0.3,0.3-0.3C24.9,43.8,25.1,44,25.1,44.1
		z"/>
	<ellipse class="st10" cx="26.7" cy="44.1" rx="0.3" ry="0.3"/>
</g>
</svg>
