<?xml version="1.0" encoding="utf-8"?>
<!-- Generator: Adobe Illustrator 28.0.0, SVG Export Plug-In . SVG Version: 6.00 Build 0)  -->
<svg version="1.1" id="Слой_1" xmlns="http://www.w3.org/2000/svg" xmlns:xlink="http://www.w3.org/1999/xlink" x="0px" y="0px"
	 viewBox="0 0 48 48" style="enable-background:new 0 0 48 48;" xml:space="preserve">
<style type="text/css">
	.st0{fill:#CBC1C0;}
	.st1{opacity:0.5;fill:#CBC1C0;}
	.st2{fill:#BDBFC9;}
	.st3{opacity:0.7;fill:#CBC1C0;}
	.st4{opacity:0.7;}
	.st5{fill:#824A3F;}
	.st6{opacity:0.5;fill:#824A3F;}
	.st7{opacity:0.7;fill:#824A3F;}
	.st8{opacity:0.5;fill:#B8849E;}
	.st9{fill:#FFFFFF;}
</style>
<g>
	<g>
		<path id="XMLID_00000104671124662551951110000001516182992789622673_" class="st0" d="M10.4,21.8L9.5,34.1l-3.2-2l-1.2-0.8
			c0,0,0.6-3.6,1.7-6.2c0.4-1,1-1.6,1.6-2.1C9.4,22.1,10.4,21.8,10.4,21.8z"/>
		<path id="XMLID_00000157276829488369363330000003334962535383789449_" class="st1" d="M10.4,21.8L9.5,34.1l-3.2-2l2.1-9.1
			C9.4,22.1,10.4,21.8,10.4,21.8z"/>
		<path id="XMLID_00000068637293882794572750000006364396839620229811_" class="st0" d="M38.2,21.8l0.9,12.3l3.2-2l1.2-0.8
			c0,0-0.6-3.6-1.7-6.2c-0.4-1-1-1.6-1.6-2.1C39.2,22.1,38.2,21.8,38.2,21.8z"/>
		<path id="XMLID_00000173874371683251935220000000934687092352136324_" class="st1" d="M38.2,21.8l0.9,12.3l3.2-2l-2.1-9.1
			C39.2,22.1,38.2,21.8,38.2,21.8z"/>
	</g>
	<path id="XMLID_00000049935306695861393330000008996002144874798223_" class="st0" d="M29,11.2h-9.4l1-2.5c0.1-0.2,0.3-0.4,0.6-0.4
		h6.2c0.3,0,0.5,0.2,0.6,0.4L29,11.2z"/>
	<path id="XMLID_00000054977214274993926490000016034803412272075679_" class="st0" d="M21.6,8.3h-0.4c-0.3,0-0.5,0.2-0.6,0.4
		l-1,2.5H20l1-2.5C21.1,8.5,21.3,8.3,21.6,8.3z"/>
	<path id="XMLID_00000162345763878397334350000006263968861036864941_" class="st1" d="M29,11.2h-4.7V8.3h3.1c0.3,0,0.5,0.2,0.6,0.4
		L29,11.2z"/>
	<path id="XMLID_00000165200182882529366320000001010309441603243665_" class="st2" d="M38.4,22.2H10.1c0.3-5,3.5-9.3,8.1-11.3
		c0.8-0.4,1.7-0.5,2.5-0.5h7c0.9,0,1.7,0.2,2.5,0.5C34.9,12.9,38.2,17.2,38.4,22.2z"/>
	<path id="XMLID_00000101802862344988344280000004620313601925742754_" class="st3" d="M24.3,17.9c-4.4,0-8.4-1.2-11.2-3.2
		c-1.7,2.1-2.8,4.7-3,7.5h28.3c-0.1-2.8-1.2-5.4-3-7.5C32.7,16.7,28.7,17.9,24.3,17.9z"/>
	<path id="XMLID_00000098187118270899797240000012175577471162875270_" class="st2" d="M19.1,10.9c0.8-0.4,1.7-0.5,2.5-0.5h-0.8
		c-0.9,0-1.7,0.2-2.5,0.5c-4.6,2-7.9,6.3-8.1,11.3H11C11.2,17.2,14.5,12.9,19.1,10.9z"/>
	<path id="XMLID_00000098923267480131631730000013913014406413928841_" class="st1" d="M38.4,22.2H24.3V10.4h3.5
		c0.9,0,1.7,0.2,2.5,0.5C34.9,12.9,38.2,17.2,38.4,22.2z"/>
	<path id="XMLID_00000105418837094846894410000007880962754432868505_" class="st2" d="M35.7,41.6l-8.3,5.1
		c-0.2,0.2-0.4,0.3-0.7,0.4c-0.4,0.2-0.8,0.3-1.2,0.3h-2.3c-0.4,0-0.9-0.1-1.2-0.3c-0.2-0.1-0.5-0.3-0.7-0.4l-8.3-5.1
		C9,39.2,7,35,7.8,30.7c0.9-5,2-10.8,2.6-12.9c0.2-0.8,1.1-1.3,1.9-1.1l7.8,1.6c1,0.2,2.1,0.3,3.2,0.3h2c1.1,0,2.1-0.1,3.2-0.3
		l7.8-1.6c0.9-0.2,1.7,0.3,1.9,1.1c0.6,2.1,1.7,7.9,2.6,12.9C41.6,35,39.6,39.2,35.7,41.6z"/>
	<g>
		<path id="XMLID_00000098185467626912423660000004757734670664989876_" class="st2" d="M22,46.6l-8.3-5.1C9.8,39.2,7.8,35,8.5,30.7
			c0.9-5,2-10.8,2.6-12.9c0.2-0.6,0.6-1,1.2-1.1l0,0c-0.9-0.2-1.7,0.3-1.9,1.1c-0.6,2.1-1.7,7.9-2.6,12.9C7,35,9,39.2,12.9,41.6
			l8.3,5.1c0.2,0.2,0.4,0.3,0.7,0.4c0.4,0.2,0.8,0.3,1.2,0.3h0.8c-0.4,0-0.9-0.1-1.2-0.3C22.4,47,22.2,46.8,22,46.6z"/>
	</g>
	<path id="XMLID_00000075850292728168107480000015352129335147514279_" class="st1" d="M35.7,41.6l-8.3,5.1
		c-0.2,0.2-0.4,0.3-0.7,0.4c-0.4,0.2-0.8,0.3-1.2,0.3h-1.2V18.6h1c1.1,0,2.1-0.1,3.2-0.3l7.8-1.6c0.9-0.2,1.7,0.3,1.9,1.1
		c0.6,2.1,1.7,7.9,2.6,12.9C41.6,35,39.6,39.2,35.7,41.6z"/>
	<g class="st4">
		<path id="XMLID_00000134939752177993264820000013344085436660235673_" class="st0" d="M13.3,26c0,0,0,8.2,3,12.3
			c0,0-0.5-6.6,1.1-9.9S13.3,26,13.3,26z"/>
		<path id="XMLID_00000132778899366179591370000005081649812337905842_" class="st0" d="M35.3,26c0,0,0,8.2-3,12.3
			c0,0,0.5-6.6-1.1-9.9S35.3,26,35.3,26z"/>
	</g>
	<path id="XMLID_00000036223245848513547090000005400958225267736250_" class="st5" d="M37.6,20.8c0.1,5.4-3.5,10-8.6,11.8
		c-1.4,0.5-2.4,1.8-2.4,3.3v11.2c-0.4,0.2-0.8,0.3-1.2,0.3h-2.3c-0.4,0-0.9-0.1-1.2-0.3V35.9c0-1.4-0.9-2.7-2.4-3.3
		c-5-1.8-8.6-6.4-8.6-11.8c0,0,0,0,0,0c3.4,2.2,8.1,3.6,13.3,3.6C29.5,24.4,34.2,23,37.6,20.8C37.6,20.8,37.6,20.8,37.6,20.8z"/>
	<path id="XMLID_00000086684247031856813500000011631786803633011356_" class="st6" d="M37.6,20.8c0.1,5.4-3.5,10-8.6,11.8
		c-1.4,0.5-2.4,1.8-2.4,3.3v11.2c-0.4,0.2-0.8,0.3-1.2,0.3h-1.2v-23C29.5,24.4,34.2,23,37.6,20.8C37.6,20.8,37.6,20.8,37.6,20.8z"/>
	<path id="XMLID_00000032642511095118167860000009278770807516537762_" class="st7" d="M24.3,25.6c5.1,0,9.7-1.3,13.2-3.3
		c0.1-0.5,0.1-1,0.1-1.5c0,0,0,0,0,0c-3.4,2.2-8.1,3.6-13.3,3.6c-5.2,0-9.9-1.4-13.3-3.6c0,0,0,0,0,0c0,0.5,0,1,0.1,1.5
		C14.6,24.4,19.2,25.6,24.3,25.6z"/>
	<path id="XMLID_00000123407383192312165490000012123262594377373586_" class="st1" d="M27.1,8.3l0,0.3c0,0.3-0.3,0.6-0.6,0.6h-4.3
		c-0.1,0-0.2,0-0.3-0.1c-0.2-0.1-0.4-0.3-0.4-0.5l0-0.3H27.1z"/>
	<path id="XMLID_00000123432771667507697360000016285260100240780180_" class="st2" d="M27.9,0.6L27,8.3c0,0.3-0.3,0.5-0.6,0.5h-4.1
		c-0.1,0-0.2,0-0.2,0c-0.2-0.1-0.3-0.3-0.4-0.5l-0.9-7.6h1c0,0,0,0,0,0.1C22,2,22.6,3.1,22.6,3.1s0.1-1.1-0.2-2.4H24
		c0,1.4,0.3,2.5,0.3,2.5s0.3-1.1,0.3-2.5h1.5C25.9,1.9,26,3.1,26,3.1s0.6-1,0.9-2.4c0,0,0,0,0-0.1H27.9z"/>
	<path id="XMLID_00000059991224888966456050000015831742737602091938_" class="st8" d="M27.9,0.6L27,8.3c0,0.3-0.3,0.5-0.6,0.5h-2.1
		V3.1c0,0,0.3-1.1,0.3-2.5h1.5C25.9,1.9,26,3.1,26,3.1s0.6-1,0.9-2.4c0,0,0,0,0-0.1H27.9z"/>
	<path id="XMLID_00000064355962279982292810000005609712115864605361_" class="st2" d="M22,8.7c-0.2-0.1-0.3-0.3-0.4-0.5l-0.9-7.6
		H21L22,8.7z"/>
	<g>
		<ellipse id="XMLID_00000037669626425472145510000008908280751159288745_" class="st1" cx="24.3" cy="23.2" rx="4.3" ry="4"/>
		<path id="XMLID_00000157288231674144733540000004763324442137877657_" class="st2" d="M28.1,23.2c0,2-1.7,3.6-3.8,3.6
			s-3.8-1.6-3.8-3.6c0-2,1.7-3.6,3.8-3.6S28.1,21.3,28.1,23.2z"/>
		<path id="XMLID_00000072269031773802562900000013822771850423820453_" class="st2" d="M20.7,23.2c0-1.9,1.7-3.5,3.7-3.6
			c0,0-0.1,0-0.1,0c-2.1,0-3.8,1.6-3.8,3.6c0,2,1.7,3.6,3.8,3.6c0,0,0.1,0,0.1,0C22.3,26.7,20.7,25.2,20.7,23.2z"/>
		<path id="XMLID_00000099657114378430529270000014171631616953025418_" class="st1" d="M28.1,23.2c0,2-1.7,3.6-3.8,3.6v-7.1
			C26.4,19.7,28.1,21.3,28.1,23.2z"/>
		<g>
			<path id="XMLID_00000068658733673123800600000005090695433107559047_" class="st2" d="M27.2,23.2c0,1.5-1.3,2.7-2.9,2.7
				c-1.6,0-2.9-1.2-2.9-2.7c0-1.5,1.3-2.7,2.9-2.7C25.9,20.5,27.2,21.7,27.2,23.2z"/>
			<path id="XMLID_00000147182369764242527950000000113733129668329365_" class="st9" d="M21.5,23.2c0-1.5,1.3-2.7,2.8-2.7
				c0,0-0.1,0-0.1,0c-1.6,0-2.9,1.2-2.9,2.7c0,1.5,1.3,2.7,2.9,2.7c0,0,0.1,0,0.1,0C22.8,25.9,21.5,24.7,21.5,23.2z"/>
			<path id="XMLID_00000060732376165778554190000011926338023928816300_" class="st8" d="M27.2,23.2c0,1.5-1.3,2.7-2.9,2.7v-5.5
				C25.9,20.5,27.2,21.7,27.2,23.2z"/>
			<path id="XMLID_00000129913394734022494900000007575014222783708573_" class="st9" d="M23.7,21.3c0.1,0.2-0.1,0.5-0.4,0.6
				s-0.7,0.2-0.8,0.1c-0.1-0.2,0.1-0.5,0.4-0.6C23.2,21.2,23.5,21.2,23.7,21.3z"/>
		</g>
	</g>
</g>
</svg>
