<?xml version="1.0" encoding="utf-8"?>
<!-- Generator: Adobe Illustrator 28.0.0, SVG Export Plug-In . SVG Version: 6.00 Build 0)  -->
<svg version="1.1" id="Слой_1" xmlns="http://www.w3.org/2000/svg" xmlns:xlink="http://www.w3.org/1999/xlink" x="0px" y="0px"
	 viewBox="0 0 48 48" style="enable-background:new 0 0 48 48;" xml:space="preserve">
<style type="text/css">
	.st0{fill:#8C98B3;}
	.st1{opacity:0.5;fill:#8C98B3;}
	.st2{fill:#CB5C31;}
	.st3{opacity:0.5;fill:#CB5C31;}
	.st4{fill:#EAA66A;}
	.st5{opacity:0.5;fill:#EAA66A;}
	.st6{fill:#B7C9E5;}
	.st7{opacity:0.5;fill:#B7C9E5;}
</style>
<g>
	<path id="XMLID_00000082361189129907956990000013180147534109941925_" class="st0" d="M23.9,1.2L31,8.4c0.4,0.4,0.4,1.1,0,1.5
		l-20,20c-0.4,0.4-1,0.4-1.4,0l-7.1-7.1c-0.4-0.4-0.4-1,0-1.4l20-20C22.8,0.8,23.5,0.8,23.9,1.2z"/>
	<path id="XMLID_00000078030430593361407900000008017139340256994492_" class="st0" d="M10.2,29.2L3.1,22c-0.4-0.4-0.4-1,0-1.4
		l-0.7,0.7c-0.4,0.4-0.4,1,0,1.4l7.1,7.1c0.4,0.4,1,0.4,1.4,0l0.7-0.7C11.3,29.6,10.6,29.6,10.2,29.2z"/>
	<path id="XMLID_00000073701676298335046050000008246617494168663734_" class="st1" d="M23.9,1.2L31,8.4c0.4,0.4,0.4,1.1,0,1.5
		l-10,10l-8.6-8.6l10-10C22.8,0.8,23.5,0.8,23.9,1.2z"/>
	<path id="XMLID_00000002364927557703131740000012355522553321950136_" class="st2" d="M14.3,8.2l31.9,31.9c1.2,1.2,1.1,3,0,4.2
		l-0.8,0.8c-1.2,1.2-3,1.2-4.2,0L9.3,13.2c-1.2-1.2-1.2-3,0-4.2l0.8-0.8C11.3,7,13.1,7,14.3,8.2z"/>
	<path id="XMLID_00000033333267971298997600000011877425511508358840_" class="st3" d="M41.7,44.6L9.8,12.7c-1.2-1.2-1.2-3,0-4.2
		L9.3,9c-1.2,1.2-1.1,3,0,4.2l31.9,31.9c1.2,1.2,3,1.2,4.2,0l0.5-0.5C44.7,45.8,42.9,45.8,41.7,44.6z"/>
	<path id="XMLID_00000048467796340986975400000008553832248292107965_" class="st3" d="M14.3,8.2l31.9,31.9c1.2,1.2,1.1,3,0,4.2
		l-0.4,0.4L9.7,8.6l0.4-0.4C11.3,7,13.1,7,14.3,8.2z"/>
	
		<rect id="XMLID_00000112631738148198813770000000165752707576879023_" x="39.6" y="41.1" transform="matrix(0.7071 -0.7071 0.7071 0.7071 -17.0669 42.8054)" class="st3" width="7" height="1.8"/>
	<path id="XMLID_00000176737127538788206600000009590010613535905928_" class="st4" d="M33.4,26.7l12.3,12.3c0.2,0.2,0.2,0.5,0,0.8
		l-4.9,4.9c-0.2,0.2-0.6,0.2-0.8,0L27.8,32.3c-0.2-0.2-0.2-0.6,0-0.8l4.9-4.9C32.8,26.4,33.2,26.4,33.4,26.7z"/>
	<path id="XMLID_00000103944521338787088140000008031111569623075738_" class="st5" d="M33.4,26.7l12.3,12.3c0.2,0.2,0.2,0.5,0,0.8
		l-2.4,2.4l-13-13l2.4-2.4C32.8,26.4,33.2,26.4,33.4,26.7z"/>
	<path id="XMLID_00000095311175406222252500000010573014725196014251_" class="st5" d="M40.4,44.2L28.1,31.9c-0.2-0.2-0.2-0.6,0-0.8
		l-0.4,0.4c-0.2,0.2-0.2,0.6,0,0.8l12.3,12.3c0.2,0.2,0.6,0.2,0.8,0l0.4-0.4C41,44.4,40.6,44.4,40.4,44.2z"/>
	
		<rect id="XMLID_00000183971388633665658490000000486422476207566478_" x="18.3" y="19.6" transform="matrix(0.7071 -0.7071 0.7071 0.7071 -8.2186 21.4424)" class="st3" width="7" height="2.1"/>
	<path id="XMLID_00000060030301202650885980000003298359346543860158_" class="st6" d="M15.4,7.4l9.5,9.5c0.2,0.2,0.1,0.4-0.1,0.6
		l-6.3,6.3C18.5,24,18.2,24,18,23.9l-9.5-9.5c-0.2-0.2-0.1-0.4,0.1-0.6l6.3-6.3C15,7.2,15.3,7.2,15.4,7.4z"/>
	<path id="XMLID_00000061453972300498292130000011685163361047091898_" class="st7" d="M18.5,23.4l-9.5-9.5
		c-0.2-0.2-0.1-0.4,0.1-0.6l-0.4,0.4c-0.2,0.2-0.2,0.5-0.1,0.6l9.5,9.5c0.2,0.2,0.4,0.1,0.6-0.1l0.4-0.4
		C18.9,23.5,18.6,23.6,18.5,23.4z"/>
	<path id="XMLID_00000023965097034983719660000009646509055785912979_" class="st7" d="M15.4,7.4l9.5,9.5c0.2,0.2,0.1,0.4-0.1,0.6
		l-3.1,3.1L11.7,10.6l3.1-3.1C15,7.2,15.3,7.2,15.4,7.4z"/>
</g>
</svg>
