<?xml version="1.0" encoding="utf-8"?>
<!-- Generator: Adobe Illustrator 28.0.0, SVG Export Plug-In . SVG Version: 6.00 Build 0)  -->
<svg version="1.1" id="Слой_1" xmlns="http://www.w3.org/2000/svg" xmlns:xlink="http://www.w3.org/1999/xlink" x="0px" y="0px"
	 viewBox="0 0 48 48" style="enable-background:new 0 0 48 48;" xml:space="preserve">
<style type="text/css">
	.st0{fill:#B2B9CC;}
	.st1{fill:#DFE1EA;}
	.st2{fill:#ECEEF0;}
	.st3{fill:#D36419;}
	.st4{fill:#DD8D59;}
	.st5{opacity:0.59;fill:#DD8D59;}
	.st6{fill:#EAA66A;}
	.st7{opacity:0.5;fill:#EAA66A;}
</style>
<g>
	<path class="st0" d="M30.1,6.5l5.1,12c0,0-8.1,4.1-18.8,18.5c0,0-12.3-9.3-16.1-21.6C0.4,15.4,14.4,15.3,30.1,6.5z"/>
	<path class="st0" d="M32,11l-1.9-4.5c-7.6,4.3-14.9,6.5-20.3,7.7C14.6,16.5,22.9,18.4,32,11z"/>
	<g>
		<path class="st0" d="M30.1,6.5L30.1,6.5c-0.3,0.1-0.5,0.2-0.8,0.4C29.6,6.8,29.9,6.6,30.1,6.5z"/>
		<path class="st1" d="M4.6,15.1c-2.7,0.4-4.3,0.4-4.3,0.4c3.8,12.3,16.1,21.6,16.1,21.6C17.3,36,18,35,18.8,34
			C15.6,31.3,8,24.1,4.6,15.1z"/>
	</g>
	<path class="st2" d="M34.2,16c-2.9,0.8-5-4.6-6.1-8.5c-3.8,2-7.4,3.4-10.7,4.5c2.3,5.4,5.7,10,5.7,10C9.8,27.9,4.5,19.8,2.6,15.3
		c-1.4,0.1-2.2,0.1-2.2,0.1c3.8,12.3,16.1,21.6,16.1,21.6c10.7-14.4,18.8-18.5,18.8-18.5L34.2,16z"/>
	<path class="st3" d="M45.2,43.8c0,0-16.1-15.7-25.5-34c0,0,2-3.3,6.7-3.3c0,0,6.4,19,21.3,35.1C47.6,41.6,46.7,43.1,45.2,43.8z"/>
	<path class="st4" d="M20.6,8.8c-0.6,0.6-0.9,1-0.9,1c9.4,18.3,25.5,34,25.5,34c1.5-0.7,2.4-2.2,2.4-2.2c-1.8-1.9-3.4-3.8-4.9-5.8
		C30.8,30.1,22.4,12.8,20.6,8.8z"/>
	<path class="st5" d="M25.5,6.6c1.7,5.1,7.8,20.6,21.6,35.7c0.4-0.4,0.6-0.7,0.6-0.7C32.8,25.5,26.4,6.5,26.4,6.5
		C26.1,6.5,25.8,6.6,25.5,6.6z"/>
	<path class="st4" d="M45.2,43.8c0,0,1.5-0.7,2.4-2.2C47.6,41.6,46.2,42.7,45.2,43.8z"/>
	<path class="st4" d="M45.2,43.8c0,0,1.5-0.7,2.4-2.2C47.6,41.6,46.2,42.7,45.2,43.8z"/>
	<path id="XMLID_00000041992438863947233870000017420853224368768405_" class="st6" d="M35.4,25.2c0,0,7.3,10.7,7.5,10.9l-2.7,2.5
		c-1.8-1.9-8.7-10.1-8.6-10.3l3.5-3.2C35.3,24.9,35.3,25.1,35.4,25.2z"/>
	<path id="XMLID_00000096047917977073301900000009615602685017910186_" class="st7" d="M35.4,25.2c0,0,7.6,11,7.5,10.9l-0.7,0.6
		l-9.8-9.2l2.7-2.5C35.3,24.9,35.3,25,35.4,25.2z"/>
</g>
</svg>
