<?xml version="1.0" encoding="utf-8"?>
<!-- Generator: Adobe Illustrator 28.0.0, SVG Export Plug-In . SVG Version: 6.00 Build 0)  -->
<svg version="1.1" id="Слой_1" xmlns="http://www.w3.org/2000/svg" xmlns:xlink="http://www.w3.org/1999/xlink" x="0px" y="0px"
	 viewBox="0 0 48 48" style="enable-background:new 0 0 48 48;" xml:space="preserve">
<style type="text/css">
	.st0{fill:#572815;}
	.st1{fill:#9FA8B2;}
	.st2{fill:#7E8689;}
	.st3{fill:#A0B0B4;}
	.st4{fill:#492116;}
	.st5{fill:#662C19;}
	.st6{fill:#7C897E;}
	.st7{fill:#757D89;}
	.st8{opacity:0.1;fill:#FFFFFF;}
	.st9{fill:#784429;}
	.st10{fill:#64371A;}
	.st11{fill:#6A371E;}
	.st12{fill:#773E21;}
	.st13{opacity:5.000000e-02;fill:#FFFFFF;}
	.st14{fill:#65331C;}
	.st15{fill:#ADB9B0;}
	.st16{fill:#462417;}
</style>
<g>
	<path class="st0" d="M41.6,18.5H6.5c0,0,0.1-1.5,0.5-3.3c0.1-0.3,0.1-0.5,0.2-0.8c0.3-1.1,0.7-2.2,1.3-3.2c0.1-0.2,0.2-0.4,0.3-0.5
		c1-1.6,2.3-2.9,4.1-3.5h22.1c0,0,1.9,0.6,3.6,2.6c0.2,0.2,0.3,0.4,0.5,0.6c0.9,1.2,1.7,2.7,2.1,4.8c0,0.2,0.1,0.4,0.1,0.6
		C41.5,16.6,41.6,17.5,41.6,18.5z"/>
	<polygon class="st1" points="0.9,22.2 47.5,22.2 47.5,18.5 0.5,18.5 	"/>
	<polygon class="st2" points="0.8,21.5 47.5,21.5 47.5,22.2 0.9,22.2 	"/>
	<polygon class="st3" points="0.9,22.2 3.3,44.9 45,44.9 47.5,22.2 	"/>
	<polygon class="st0" points="4.6,25.1 44.2,24.9 42.1,42.8 6,42.8 	"/>
	<polygon class="st4" points="4.6,25.1 44.2,24.9 44.1,25.7 4.7,26 	"/>
	<polygon class="st5" points="43.5,30.8 43.4,31.5 5.2,32.4 5.2,31.9 	"/>
	<path class="st5" d="M39.2,10.3L8.5,11.1c0.1-0.2,0.2-0.4,0.3-0.5l29.8-0.9C38.9,9.9,39,10.1,39.2,10.3z"/>
	<polygon class="st5" points="5.7,38.3 42.6,39.1 42.5,39.8 5.7,39.1 	"/>
	<path class="st5" d="M41.4,15.7L7,15.2c0.1-0.3,0.1-0.5,0.2-0.8l34,0.8C41.3,15.3,41.4,15.5,41.4,15.7z"/>
	<path class="st6" d="M0.4,21.9l0.4,7.6c0,0,4-0.3,3.8-4.5c0,0,4.7,0.2,4.7-3.2H0.4z"/>
	<path class="st6" d="M1.9,39.1c0,0,4.1,0.1,4.1,3.7c0,0,4.7,0.6,4.5,2.5H2.4L1.9,39.1z"/>
	<path class="st6" d="M47.7,21.9l-0.4,7.6c0,0-3.3-0.5-3.1-4.6c0,0-5.4,0.3-5.4-3H47.7z"/>
	<path class="st6" d="M46.2,39.1c0,0-4.1,0.1-4,3.7c0,0-4.7,0.6-4.5,2.5h8.1L46.2,39.1z"/>
	<path class="st7" d="M40.2,22.5c-0.3,0-0.5,0.2-0.5,0.4v0.1c0,0.2,0.2,0.4,0.5,0.4c0.3,0,0.5-0.2,0.5-0.4v-0.1
		C40.7,22.7,40.5,22.5,40.2,22.5z"/>
	<path class="st7" d="M46.2,27.6c-0.6,0-0.6,0.8,0,0.8C46.8,28.3,46.8,27.6,46.2,27.6z"/>
	<path class="st7" d="M46.6,22.5c-0.6,0-0.6,0.8,0,0.8C47.1,23.2,47.2,22.5,46.6,22.5z"/>
	<path class="st7" d="M45.1,39.8c-0.6,0-0.6,0.8,0,0.8C45.7,40.5,45.7,39.8,45.1,39.8z"/>
	<path class="st7" d="M44.7,44.2c-0.3,0-0.5,0.2-0.5,0.4v0.1c0,0.2,0.2,0.4,0.5,0.4c0.3,0,0.5-0.2,0.5-0.4v-0.1
		C45.2,44.4,44.9,44.2,44.7,44.2z"/>
	<path class="st7" d="M39.1,44.1c-0.3,0-0.5,0.2-0.5,0.4v0.1c0,0.2,0.2,0.4,0.5,0.4c0.3,0,0.5-0.2,0.5-0.4v-0.1
		C39.5,44.3,39.3,44.1,39.1,44.1z"/>
	<path class="st7" d="M2.8,39.7c-0.6,0-0.6,0.8,0,0.8C3.4,40.5,3.4,39.7,2.8,39.7z"/>
	<path class="st7" d="M3.1,44.1c-0.6,0-0.6,0.8,0,0.8C3.7,44.9,3.7,44.1,3.1,44.1z"/>
	<path class="st7" d="M8.6,44.2c-0.6,0-0.6,0.8,0,0.8C9.2,44.9,9.2,44.2,8.6,44.2z"/>
	<path class="st7" d="M1.3,22.5c-0.6,0-0.6,0.8,0,0.8C1.9,23.2,1.9,22.5,1.3,22.5z"/>
	<path class="st7" d="M1.6,27.6c-0.6,0-0.6,0.8,0,0.8C2.2,28.3,2.2,27.6,1.6,27.6z"/>
	<path class="st7" d="M7.8,22.4c-0.6,0-0.6,0.8,0,0.8C8.4,23.1,8.4,22.4,7.8,22.4z"/>
	<path class="st3" d="M0.5,18.5c0,0,0.9-8,7.1-11.4H13c0,0-6.3,4.9-6.5,11.4H0.5z"/>
	<path class="st3" d="M47.5,18.5c0,0-0.9-8-7.1-11.4h-5.4c0,0,6.3,4.9,6.5,11.4H47.5z"/>
	<polygon class="st3" points="22.2,7.1 21.7,18.5 26.4,18.5 26,7.1 	"/>
	<path class="st8" d="M45.4,12.2H2.6c1.1-1.9,2.6-3.8,5-5.1h32.9C42.8,8.4,44.4,10.3,45.4,12.2z"/>
	<polygon class="st4" points="4.6,25.1 6.2,25.1 7.4,42.8 6,42.8 	"/>
	<polygon class="st4" points="44.2,24.9 42.1,42.8 40.7,42.8 42.7,24.9 	"/>
	<g>
		<path class="st9" d="M31.5,22.2c0,3.2-3.2,5.8-7.1,5.8c-3.9,0-7.1-2.6-7.1-5.8c0-0.1,0-0.3,0-0.4c0.3-3,3.3-5.3,7-5.3
			c3.3,0,6,1.8,6.8,4.3C31.4,21.2,31.5,21.7,31.5,22.2z"/>
		<ellipse class="st10" cx="24.4" cy="22.2" rx="5" ry="4.1"/>
		<ellipse class="st11" cx="24.4" cy="22.2" rx="4.4" ry="3.6"/>
		<path class="st12" d="M23.7,17.1c-0.6,0-0.6,0.8,0,0.8C24.3,17.9,24.3,17.1,23.7,17.1z"/>
		<path class="st12" d="M24.2,26.8c-0.6,0-0.6,0.8,0,0.8C24.8,27.5,24.8,26.8,24.2,26.8z"/>
		<path class="st12" d="M26.9,17.5c-0.6,0-0.6,0.8,0,0.8C27.5,18.3,27.5,17.5,26.9,17.5z"/>
		<path class="st12" d="M26.9,26.4c-0.6,0-0.6,0.8,0,0.8C27.5,27.2,27.5,26.4,26.9,26.4z"/>
		<path class="st12" d="M29.4,19.1c-0.6,0-0.6,0.8,0,0.8C30,19.9,30,19.1,29.4,19.1z"/>
		<path class="st12" d="M30.4,21.5c-0.6,0-0.6,0.8,0,0.8C31,22.2,31,21.5,30.4,21.5z"/>
		<path class="st12" d="M29.9,23.7L29.9,23.7c-0.3,0-0.6,0.2-0.5,0.4c0,0.2,0.2,0.4,0.5,0.4h0.1c0.2,0,0.5-0.2,0.5-0.4
			C30.4,23.9,30.2,23.7,29.9,23.7z"/>
		<path class="st12" d="M28.8,25.2c-0.6,0-0.6,0.8,0,0.8C29.4,25.9,29.4,25.2,28.8,25.2z"/>
		<path class="st12" d="M20.5,18.3c-0.6,0-0.6,0.8,0,0.8C21.1,19,21.1,18.3,20.5,18.3z"/>
		<path class="st12" d="M18.6,20.5c-0.6,0-0.6,0.8,0,0.8C19.2,21.2,19.2,20.5,18.6,20.5z"/>
		<path class="st12" d="M18.9,23L18.9,23c-0.3-0.2-0.6-0.2-0.7-0.1c-0.2,0.1-0.2,0.4,0,0.5c0,0,0.1,0,0.1,0.1c0.2,0.1,0.5,0.1,0.7,0
			C19.1,23.4,19.1,23.1,18.9,23z"/>
		<path class="st12" d="M19.4,24.6c-0.6,0-0.6,0.8,0,0.8C20,25.4,20,24.6,19.4,24.6z"/>
		<path class="st12" d="M21.3,26c-0.6,0-0.6,0.8,0,0.8C21.9,26.8,21.9,26,21.3,26z"/>
		<path class="st13" d="M31.2,20.8c-2.1,1.1-4.5,1.6-6.9,1.7c-2.3,0.1-4.7-0.2-6.9-0.6c0.3-3,3.3-5.3,7-5.3
			C27.7,16.5,30.4,18.3,31.2,20.8z"/>
	</g>
	<g>
		<path class="st14" d="M27,23c-0.5-1.1-1.7-1.3-3-1.2c-3.8,0.3-3.1,4-2.8,6.3c0.1,0.5,1,0.5,0.9,0c-0.1-1-0.2-2-0.1-3
			c0-1.3,0.2-2.5,2.2-2.6c2-0.1,2.1,1,2.2,2.3c0.1,1,0,2-0.1,3c-0.1,0.5,0.9,0.5,0.9,0C27.5,26.4,27.7,24.4,27,23z"/>
		<path class="st15" d="M28.2,27.2L28,28.9l-0.2,2c-0.1,0.8-0.9,1.5-1.9,1.5h-3.7c-1,0-1.8-0.6-1.9-1.4l-0.3-2l-0.2-1.7
			c-0.1-0.9,0.8-1.7,1.9-1.7h4.4C27.4,25.5,28.3,26.3,28.2,27.2z"/>
		<path class="st8" d="M28.2,27.2L28,28.9c-2.6,0.6-5.3,0.6-7.9,0.1l-0.2-1.7c-0.1-0.9,0.8-1.7,1.9-1.7h4.4
			C27.4,25.5,28.3,26.3,28.2,27.2z"/>
		<path class="st14" d="M25.6,28.3c0-0.6-0.6-1.1-1.4-1.1c-0.8,0-1.4,0.5-1.4,1.1c0,0.4,0.3,0.7,0.6,0.9l-0.2,1.5h1.8l-0.2-1.4
			C25.3,29.1,25.6,28.7,25.6,28.3z"/>
	</g>
	<path class="st16" d="M23,20.6l-0.2,3c0,0.6,0.5,1,1.2,1h0.3c0.7,0,1.2-0.5,1.2-1l-0.2-3c0-0.5-0.6-0.9-1.2-0.9l0,0
		C23.5,19.7,23,20.1,23,20.6z"/>
</g>
</svg>
