<?xml version="1.0" encoding="utf-8"?>
<!-- Generator: Adobe Illustrator 28.0.0, SVG Export Plug-In . SVG Version: 6.00 Build 0)  -->
<svg version="1.1" id="Слой_1" xmlns="http://www.w3.org/2000/svg" xmlns:xlink="http://www.w3.org/1999/xlink" x="0px" y="0px"
	 viewBox="0 0 48 48" style="enable-background:new 0 0 48 48;" xml:space="preserve">
<style type="text/css">
	.st0{fill:#8C98B3;}
	.st1{opacity:0.5;fill:#8C98B3;}
	.st2{fill:#CB5C31;}
	.st3{opacity:0.5;fill:#CB5C31;}
	.st4{fill:#EAA66A;}
	.st5{opacity:0.5;fill:#EAA66A;}
	.st6{fill:#B7C9E5;}
	.st7{opacity:0.5;fill:#B7C9E5;}
</style>
<g>
	<path id="XMLID_00000116948712929260528120000016771474774075246220_" class="st0" d="M35.8,5.3c-5.5,2.2-11.7,6.3-17.4,12
		c-5.7,5.7-9.8,11.8-12,17.4c-0.3,0.7-1.2,0.6-1.4,0c-2-6.1,1.1-15.2,8.3-22.4C20.6,5,29.7,1.9,35.8,3.9C36.4,4.1,36.5,5.1,35.8,5.3
		z"/>
	<g id="XMLID_00000140004113552615461720000007378133178824631175_">
		<path id="XMLID_00000031204187306903769910000007781566637168670852_" class="st0" d="M5.7,33.9c-2-6,1-14.9,8-22
			c-0.1,0.1-0.2,0.2-0.3,0.3C6.2,19.4,3,28.5,5.1,34.6c0.2,0.7,1.2,0.7,1.4,0c0-0.1,0.1-0.1,0.1-0.2C6.2,34.5,5.9,34.3,5.7,33.9z"/>
	</g>
	<path id="XMLID_00000076563421216572315780000011335070638105565868_" class="st1" d="M35.8,5.3c-5.5,2.2-11.7,6.3-17.4,12
		l-5.1-5.1C20.6,5,29.7,1.9,35.8,3.9C36.4,4.1,36.5,5.1,35.8,5.3z"/>
	<path id="XMLID_00000032639290709171761810000017720032767121270444_" class="st2" d="M15.6,9.6l30.6,30.6c1.1,1.1,1.1,2.9,0,4
		l-0.8,0.8c-1.1,1.1-2.9,1.1-4,0L10.8,14.4c-1.1-1.1-1.1-2.9,0-4l0.8-0.8C12.7,8.5,14.5,8.5,15.6,9.6z"/>
	<path id="XMLID_00000106853001465402787380000008481615790061946288_" class="st3" d="M41.9,44.6L11.3,14c-1.1-1.1-1.1-2.9,0-4
		l-0.4,0.4c-1.1,1.1-1.1,2.9,0,4l30.6,30.6c1.1,1.1,2.9,1.1,4,0l0.4-0.4C44.8,45.7,43,45.7,41.9,44.6z"/>
	<path id="XMLID_00000072971079896995214390000014502345136140539548_" class="st3" d="M15.6,9.6l30.6,30.6c1.1,1.1,1.1,2.9,0,4
		l-0.4,0.4L11.2,10l0.4-0.4C12.7,8.5,14.5,8.5,15.6,9.6z"/>
	
		<rect id="XMLID_00000053542277528277187090000002758228879168067207_" x="16.3" y="17.5" transform="matrix(0.7071 -0.7071 0.7071 0.7071 -7.3256 19.3579)" class="st3" width="6.8" height="2"/>
	<path id="XMLID_00000032647417731253586220000015599950249319327629_" class="st4" d="M33.9,27.4l11.8,11.8c0.2,0.2,0.2,0.5,0,0.7
		L41,44.5c-0.2,0.2-0.5,0.2-0.7,0L28.5,32.7c-0.2-0.2-0.2-0.5,0-0.7l4.7-4.7C33.4,27.2,33.7,27.2,33.9,27.4z"/>
	<path id="XMLID_00000026149552132428482770000012528093138485206149_" class="st5" d="M33.9,27.4l11.8,11.8c0.2,0.2,0.2,0.5,0,0.7
		l-2.3,2.3L30.9,29.7l2.3-2.3C33.4,27.2,33.7,27.2,33.9,27.4z"/>
	<path id="XMLID_00000023992063515696307880000009545901065547272065_" class="st6" d="M16.1,9.5l6.1,6.1c0.1,0.1,0.1,0.4,0,0.5
		L17.3,21c-0.1,0.1-0.4,0.1-0.5,0l-6.1-6.1c-0.1-0.1-0.1-0.4,0-0.5l4.9-4.9C15.7,9.3,15.9,9.3,16.1,9.5z"/>
	<path id="XMLID_00000024713580192610901840000015088824317453057961_" class="st5" d="M40.7,44.2L28.9,32.4c-0.2-0.2-0.2-0.5,0-0.7
		L28.5,32c-0.2,0.2-0.2,0.5,0,0.7l11.8,11.8c0.2,0.2,0.5,0.2,0.7,0l0.3-0.3C41.2,44.4,40.9,44.4,40.7,44.2z"/>
	<path id="XMLID_00000181778460377398197940000001381179760546776735_" class="st7" d="M17.1,20.6L11,14.5c-0.1-0.1-0.1-0.4,0-0.5
		l-0.3,0.3c-0.1,0.1-0.1,0.4,0,0.5l6.1,6.1c0.1,0.1,0.4,0.1,0.5,0l0.3-0.3C17.5,20.8,17.2,20.8,17.1,20.6z"/>
	<path id="XMLID_00000089544668661522201860000003028491190813295516_" class="st7" d="M16.1,9.5l6.1,6.1c0.1,0.1,0.1,0.4,0,0.5
		l-2.4,2.4l-6.6-6.6l2.4-2.4C15.7,9.3,15.9,9.3,16.1,9.5z"/>
</g>
</svg>
