<?xml version="1.0" encoding="utf-8"?>
<!-- Generator: Adobe Illustrator 28.0.0, SVG Export Plug-In . SVG Version: 6.00 Build 0)  -->
<svg version="1.1" id="Слой_1" xmlns="http://www.w3.org/2000/svg" xmlns:xlink="http://www.w3.org/1999/xlink" x="0px" y="0px"
	 viewBox="0 0 48 48" style="enable-background:new 0 0 48 48;" xml:space="preserve">
<style type="text/css">
	.st0{fill:#E6F4F9;}
	.st1{fill:#CAE6F3;}
	.st2{fill:#AFD0E3;}
	.st3{fill:#AF543F;}
	.st4{fill:#FEC800;}
	.st5{fill:#F18509;}
	.st6{fill:#88463B;}
</style>
<g>
	<polygon class="st0" points="14,28 20,32.8 41.8,7.6 41.2,0.5 34.1,1.4 	"/>
	<polygon class="st1" points="41.8,7.6 36.3,6.5 34.1,1.4 14,28 20,32.8 	"/>
	<polygon class="st2" points="36.3,6.5 17,30.4 20,32.8 41.8,7.6 	"/>
	
		<rect x="5.2" y="29.7" transform="matrix(-0.7773 -0.6291 0.6291 -0.7773 7.3842 66.4294)" class="st3" width="20.6" height="4.3"/>
	
		<rect x="7.6" y="32.2" transform="matrix(-0.7773 -0.6291 0.6291 -0.7773 -6.0921 74.6963)" class="st3" width="5.2" height="12.4"/>
	<rect x="9" y="32.7" transform="matrix(-0.7773 -0.6291 0.6291 -0.7773 -2.4443 72.4586)" class="st4" width="5.2" height="7.9"/>
	
		<rect x="11.3" y="33.5" transform="matrix(-0.7773 -0.6291 0.6291 -0.7773 3.3758 68.8884)" class="st5" width="5.2" height="0.7"/>
	
		<rect x="9.7" y="35.4" transform="matrix(-0.7773 -0.6291 0.6291 -0.7773 -0.5043 71.2685)" class="st5" width="5.2" height="0.7"/>
	
		<rect x="8.2" y="37.3" transform="matrix(-0.7773 -0.6291 0.6291 -0.7773 -4.3843 73.6487)" class="st5" width="5.2" height="0.7"/>
	
		<rect x="6.7" y="39.1" transform="matrix(-0.7773 -0.6291 0.6291 -0.7773 -8.2644 76.0289)" class="st5" width="5.2" height="0.7"/>
	<g>
		<circle class="st3" cx="5.7" cy="43.9" r="3.6"/>
		<path class="st6" d="M4,42.4c-0.8,1-0.6,2.4,0.3,3.3s2.4,0.6,3.3-0.3s0.6-2.4-0.3-3.3C6.2,41.3,4.8,41.4,4,42.4z"/>
		<path class="st4" d="M4.5,42.9c-0.6,0.7-0.5,1.7,0.2,2.3c0.7,0.6,1.7,0.5,2.3-0.2c0.6-0.7,0.5-1.7-0.2-2.3
			C6.1,42.1,5,42.2,4.5,42.9z"/>
	</g>
	<g>
		<ellipse transform="matrix(0.8787 -0.4774 0.4774 0.8787 -15.6144 16.0326)" class="st3" cx="23.7" cy="38.7" rx="3.6" ry="3.6"/>
		<path class="st6" d="M21.9,37.3c-0.8,1-0.6,2.4,0.3,3.3c1,0.8,2.4,0.6,3.3-0.3c0.8-1,0.6-2.4-0.3-3.3
			C24.2,36.1,22.7,36.3,21.9,37.3z"/>
		<path class="st4" d="M22.5,37.7c-0.6,0.7-0.5,1.7,0.2,2.3c0.7,0.6,1.7,0.5,2.3-0.2c0.6-0.7,0.5-1.7-0.2-2.3
			C24.1,36.9,23,37,22.5,37.7z"/>
	</g>
	<g>
		<ellipse transform="matrix(0.8639 -0.5036 0.5036 0.8639 -11.8193 7.1437)" class="st3" cx="7.3" cy="25.4" rx="3.6" ry="3.6"/>
		<path class="st6" d="M5.5,24c-0.8,1-0.6,2.4,0.3,3.3c1,0.8,2.4,0.6,3.3-0.3c0.8-1,0.6-2.4-0.3-3.3C7.8,22.8,6.3,23,5.5,24z"/>
		<path class="st4" d="M6,24.4c-0.6,0.7-0.5,1.7,0.2,2.3C7,27.3,8,27.2,8.6,26.5c0.6-0.7,0.5-1.7-0.2-2.3C7.6,23.6,6.6,23.7,6,24.4z
			"/>
	</g>
</g>
</svg>
