<?xml version="1.0" encoding="utf-8"?>
<!-- Generator: Adobe Illustrator 28.0.0, SVG Export Plug-In . SVG Version: 6.00 Build 0)  -->
<svg version="1.1" id="Слой_1" xmlns="http://www.w3.org/2000/svg" xmlns:xlink="http://www.w3.org/1999/xlink" x="0px" y="0px"
	 viewBox="0 0 48 48" style="enable-background:new 0 0 48 48;" xml:space="preserve">
<style type="text/css">
	.st0{fill:#D25227;}
	.st1{fill:#90321F;}
	.st2{fill:#FFDD72;}
	.st3{fill:#FAB859;}
	.st4{fill:#B04725;}
</style>
<g>
	<g>
		<g>
			<rect x="6" y="24.7" class="st0" width="19.1" height="7.2"/>
			<path class="st1" d="M25.1,39H6v-7.2h19.1C25.1,35.8,25.1,39,25.1,39z"/>
			<g>
				<path class="st2" d="M0.6,31.8C0.6,35.8,3,39,6,39s5.4-3.2,5.4-7.2c0-4-2.4-7.2-5.4-7.2S0.6,27.9,0.6,31.8z"/>
				<path class="st3" d="M6,35.9c1.5,0,2.8-1.7,2.9-3.8H10C9.9,34.9,8.1,37,6,37c-2.1,0-3.9-2.2-4-4.9h1.1C3.2,34.2,4.4,35.9,6,35.9
					z"/>
				<path class="st3" d="M6.7,31.8L6.7,31.8c0-0.7-0.4-1.2-0.8-1.2c-0.4,0-0.8,0.5-0.8,1.2v0H4.1v0c0-1.3,0.8-2.3,1.9-2.3
					c1.1,0,1.9,1,1.9,2.3v0H6.7z"/>
			</g>
			<path class="st0" d="M30.5,31.8H19.7c0-4,2.4-7.2,5.4-7.2C28.1,24.7,30.5,27.9,30.5,31.8z"/>
			<path class="st4" d="M30.5,31.8c0,4-2.4,7.2-5.4,7.2c-3,0-5.4-3.2-5.4-7.2H30.5z"/>
		</g>
		<g>
			<rect x="22.7" y="24.7" class="st0" width="19.1" height="7.2"/>
			<path class="st4" d="M41.8,39H22.7v-7.2h19.1C41.8,35.8,41.8,39,41.8,39z"/>
			<g>
				<path class="st2" d="M17.3,31.8c0,4,2.4,7.2,5.4,7.2c3,0,5.4-3.2,5.4-7.2c0-4-2.4-7.2-5.4-7.2C19.7,24.7,17.3,27.9,17.3,31.8z"
					/>
				<path class="st3" d="M22.7,35.9c1.5,0,2.8-1.7,2.9-3.8h1.1c-0.1,2.7-1.9,4.9-4,4.9c-2.1,0-3.9-2.2-4-4.9h1.1
					C19.9,34.2,21.2,35.9,22.7,35.9z"/>
				<path class="st3" d="M23.4,31.8L23.4,31.8c0-0.7-0.4-1.2-0.8-1.2c-0.4,0-0.8,0.5-0.8,1.2v0h-1.1v0c0-1.3,0.8-2.3,1.9-2.3
					c1.1,0,1.9,1,1.9,2.3v0H23.4z"/>
			</g>
			<path class="st0" d="M47.2,31.8H36.4c0-4,2.4-7.2,5.4-7.2C44.8,24.7,47.2,27.9,47.2,31.8z"/>
			<path class="st4" d="M47.2,31.8c0,4-2.4,7.2-5.4,7.2c-3,0-5.4-3.2-5.4-7.2H47.2z"/>
		</g>
	</g>
	<g>
		<rect x="14.3" y="10.4" class="st0" width="19.1" height="7.2"/>
		<path class="st4" d="M33.5,24.7H14.3v-7.2h19.1C33.5,21.5,33.5,24.7,33.5,24.7z"/>
		<g>
			<path class="st2" d="M9,17.5c0,4,2.4,7.2,5.4,7.2c3,0,5.4-3.2,5.4-7.2c0-4-2.4-7.2-5.4-7.2C11.4,10.4,9,13.6,9,17.5z"/>
			<path class="st3" d="M14.3,21.6c1.5,0,2.8-1.7,2.9-3.8h1.1c-0.1,2.7-1.9,4.9-4,4.9c-2.1,0-3.9-2.2-4-4.9h1.1
				C11.5,19.9,12.8,21.6,14.3,21.6z"/>
			<path class="st3" d="M15.1,17.5L15.1,17.5c0-0.7-0.4-1.2-0.8-1.2c-0.4,0-0.8,0.5-0.8,1.2l0,0h-1.1l0,0c0-1.3,0.8-2.3,1.9-2.3
				c1.1,0,1.9,1,1.9,2.3l0,0H15.1z"/>
		</g>
		<path class="st0" d="M38.8,17.5H28.1c0-4,2.4-7.2,5.4-7.2C36.4,10.4,38.8,13.6,38.8,17.5z"/>
		<path class="st4" d="M38.8,17.5c0,4-2.4,7.2-5.4,7.2c-3,0-5.4-3.2-5.4-7.2H38.8z"/>
	</g>
</g>
</svg>
