<?xml version="1.0" encoding="utf-8"?>
<!-- Generator: Adobe Illustrator 28.0.0, SVG Export Plug-In . SVG Version: 6.00 Build 0)  -->
<svg version="1.1" id="Слой_1" xmlns="http://www.w3.org/2000/svg" xmlns:xlink="http://www.w3.org/1999/xlink" x="0px" y="0px"
	 viewBox="0 0 48 48" style="enable-background:new 0 0 48 48;" xml:space="preserve">
<style type="text/css">
	.st0{fill:#F18509;}
	.st1{fill:#F6A102;}
	.st2{fill:#FEC800;}
	.st3{fill:#FFE681;}
</style>
<g>
	<circle class="st0" cx="23.3" cy="25.3" r="22.3"/>
	<circle class="st1" cx="23.3" cy="22.7" r="22.3"/>
	<g>
		<path class="st2" d="M43.5,13.1L13.8,42.9c1,0.5,2,0.9,3.1,1.2l27.8-27.8C44.4,15.1,44,14.1,43.5,13.1z"/>
		<path class="st2" d="M25.5,0.4L1.1,24.9c0.7,7.5,5.1,13.9,11.4,17.3l30.4-30.4C39.4,5.6,33,1.2,25.5,0.4z"/>
	</g>
	<ellipse transform="matrix(0.1635 -0.9865 0.9865 0.1635 -2.8429 41.9906)" class="st0" cx="23.3" cy="22.7" rx="17.8" ry="17.8"/>
	<circle class="st2" cx="23.3" cy="22.7" r="16.1"/>
	<polygon class="st3" points="17.1,26 10.8,19.9 19.5,18.6 23.3,10.7 27.2,18.6 35.9,19.9 29.6,26 31.1,34.6 23.3,30.5 15.6,34.6 	
		"/>
</g>
</svg>
