<?xml version="1.0" encoding="utf-8"?>
<!-- Generator: Adobe Illustrator 28.0.0, SVG Export Plug-In . SVG Version: 6.00 Build 0)  -->
<svg version="1.1" id="Слой_1" xmlns="http://www.w3.org/2000/svg" xmlns:xlink="http://www.w3.org/1999/xlink" x="0px" y="0px"
	 viewBox="0 0 48 48" style="enable-background:new 0 0 48 48;" xml:space="preserve">
<style type="text/css">
	.st0{fill-rule:evenodd;clip-rule:evenodd;fill:#8A8A8A;}
	.st1{fill-rule:evenodd;clip-rule:evenodd;fill:#747474;}
	.st2{fill-rule:evenodd;clip-rule:evenodd;fill:#B4B4B4;}
	.st3{fill:#9D9D9D;}
	.st4{fill-rule:evenodd;clip-rule:evenodd;fill:#AEAEAF;}
	.st5{fill-rule:evenodd;clip-rule:evenodd;fill:#C2C1C1;}
</style>
<g>
	<g>
		<path class="st0" d="M18.3,39.8c-1-2-2.1-8.9-2.1-11.2c0.1-2.4-0.2-2.8-0.7-4.5c-0.6-1.7-1.1-1.2-0.5-2.6c0.6-1.4,3.3-5.9,3.6-8.2
			c0.3-2.3-0.5-3.4,0.4-4.2c0.9-0.7,3.9-1.9,7.5-1.4c3.7,0.5,5.5,0.5,6.2,0.5c0.7,0,4.5,2.6,5,4.7c0.5,2.1,0.8,9.2,0.7,11.6
			c-0.1,2.4,0.2,6.2,1.1,8.7c1,2.5,1.2,4.5-0.2,5.7c-1.4,1.1-4.1,2.3-7.5,2.4c-3.4,0.1-12.4-0.8-13-1.1
			C18.3,39.8,18.3,39.8,18.3,39.8z"/>
		<path class="st1" d="M16.5,44.2c-1.1,0-1.7-0.8-2.2-0.9c-0.5-0.1-1.1,0.3-0.5-0.5c0.6-0.7,1.4-1.4,2.3-1.5c0.9-0.1,2.1-0.5,2.8,0
			c0.7,0.5,1.1,0.9,1.1,1.6c0,0.7,0.1,1.2-0.9,1.2c-1.1,0.1-1,0.4-1.6,0.3c-0.6,0-1,0-1,0L16.5,44.2z"/>
		<path class="st0" d="M15.4,42.4c0,0-0.1-0.5-0.2-0.8c-0.5,0.3-1,0.7-1.4,1.2c-0.6,0.7,0,0.3,0.5,0.5c0.4,0.1,0.8,0.7,1.6,0.9
			c0.3-0.2,0.5-0.5,0.3-0.7C15.9,43.1,15.4,42.4,15.4,42.4z"/>
		<path class="st2" d="M18.9,43.1c0.5,0,0.6,0,0.5-0.6c0-0.2,0-0.5,0-0.7c-0.1-0.1-0.3-0.3-0.5-0.4c-0.7-0.5-1.9-0.1-2.8,0
			c-0.6,0.1-1.1,0.3-1.6,0.7c0.1,0.2,0.1,0.3,0.3,0.4c0.3,0.1,0.8,0.7,0.8,0.7c0.6,0.4,0,0.4,0.9,0.3C17.5,43.4,18.5,43.1,18.9,43.1
			z"/>
		<g>
			<path class="st3" d="M17.8,39.7l-0.1-0.4c-1-2.6-1.9-8.7-1.8-10.8c0.1-2-0.1-2.5-0.5-3.9l-0.2-0.5c-0.2-0.6-0.4-0.9-0.5-1.1
				c-0.3-0.6-0.4-0.9,0-1.8c0.2-0.4,0.5-1.1,1-1.9c0.5-0.9,1-2,1.5-3l0.1-0.2l0.2-0.1c0.6-0.2,1.3-0.4,1.9-0.6
				c0.7-0.2,0.8-0.8,1-1.3c0.1-0.3,0.1-0.5,0.2-0.7c0.2-0.4,0.5-0.3,0.6-0.3c0.4,0.1,0.5,0.3,0.1,3.8c-0.2,1.5,1.2,9.6,1.5,10.8
				c0.1,0.6,1.2,2.7,2,4.4c1.7,3.5,1.7,3.5,1.5,3.8L26.1,36l-0.2,0.1c-0.2,0.1-0.5,0.2-1.3,0.5c-0.2,0.1-0.5,0.3-0.9,0.5
				c-1.3,0.7-3.3,1.9-5.5,2.5L17.8,39.7z M17.8,16.8c-0.5,1-1,2-1.4,2.9c-0.4,0.8-0.8,1.5-0.9,1.9c-0.3,0.7-0.3,0.7-0.1,1.1
				c0.1,0.2,0.4,0.6,0.6,1.3l0.2,0.5c0.5,1.3,0.7,1.9,0.6,4.2c-0.1,2,0.8,7.5,1.7,10.1c1.9-0.6,3.8-1.7,5-2.3
				c0.4-0.2,0.7-0.4,0.9-0.5c0.5-0.2,0.8-0.4,1.1-0.5c-0.2-0.6-0.9-1.9-1.4-2.9c-0.9-1.9-1.9-3.9-2.1-4.5c-0.3-1.1-1.7-9.4-1.5-11.1
				c0-0.4,0.1-0.7,0.1-1.1c-0.2,0.2-0.5,0.4-0.9,0.5C19,16.4,18.4,16.6,17.8,16.8z"/>
		</g>
		<path class="st0" d="M17.8,26.3c-0.5-1.3-0.7-1.8-0.6-2c0.1-0.3,1,0.8,2.2,1.1c1.2,0.3,2,0.2,2.2,0.2c0,0,0.1,0,0.2-0.1
			c-0.5-2.9-1.2-7.5-1.1-8.6c0.2-1.6,0.4-3.9,0.1-3.3c-0.2,0.5-0.2,1.3-0.7,1.9c-0.1,0.7-0.3,1.6-0.5,2.6c-0.5,2.2-0.4,4.3-1.1,4.7
			c-0.8,0.5-1.3,0.2-1.4,0c-0.1-0.2,0.1-1.2-0.6-1.4c-0.3-0.1-0.8-0.3-1.2-0.5c-0.1,0.2-0.2,0.4-0.2,0.5c-0.6,1.4-0.1,0.9,0.5,2.6
			c0.6,1.7,0.8,2.1,0.7,4.5c0,1.4,0.3,4.4,0.9,7c-0.3-1.9,0.5-3.2,0.8-5.3C18.2,28.3,18.2,27.6,17.8,26.3z"/>
		<path class="st4" d="M35.4,12.5c-1.4,0-2.9,0.6-4.8,1c-1.9,0.5-4.2,0.2-6.3,0.1c-2.2-0.1-2.9-0.2-3.4,0c-0.6,0.2,0,1.9,0,2.3
			c-0.1,0.5-0.5,4.4-0.5,4.4v4.6l1.5,6.2l4,4.6c0,0,1.1,0.5,2.6,1.1c1.5,0.6,7.4,2.9,9.2,2.9c0,0-0.1-2,0.2-3.6
			c0.3-1.5-0.4-5.8-0.3-7.5c0.1-1.7,0.1-1.7,0.7-3.8c0.1-0.3,0.2-0.8,0.3-1.4c0-3-0.3-8.7-0.8-10.6C37.3,12.4,36.8,12.5,35.4,12.5z"
			/>
		<path class="st5" d="M20.3,38c1.7-0.9,3.9-3.3,3.8-4.3c-0.1-1-0.6-2.2-0.9-2.8c-0.3-0.7-2-3-2-4.8c0-1.8-0.3-3.7-0.1-4.7
			c0.1-1.1,1.1,4,1.9,5.8c0.8,1.8,1.3,4,2.5,5.4c1.2,1.4,1.5,1.5,2.4,2.7c0.9,1.2,10.2,4.5,9.8,4.4c-1.5-0.2-10.9-2.9-11.9-4
			C24.9,36,21.2,38.8,20.3,38z"/>
		<path class="st5" d="M37.7,27.2c-0.1-0.2-0.2-0.3-0.3-0.3c-0.3-0.2-4.2-0.7-7-2.3c-2.8-1.6-1.8,0-2,0.8c-0.2,0.7,0,3.2,0.6,4.8
			c0.6,1.6,1.6,1.4,3.6,2.3c2.1,0.9,3.2,1.6,4,2.4c0.8,0.8,0.5,3.1,0.5,3.8c0,0,0.5,0.7,0.5,0.7l0,0c0-0.7,0-2,0.3-3.1
			c0.3-1.5-0.4-5.8-0.3-7.5C37.7,28,37.7,27.5,37.7,27.2z"/>
		<g>
			<path class="st5" d="M20.8,13.6c0.2-0.1,0.4-0.1,0.8-0.1c0.1,0,0.1,0,0.2,0c0,0,0.1,0,0.1,0c0.2,0,0.4,0,0.6,0l0,0
				c-1.9-1.2-2.5-1.9-3.2-3.3c-0.2-0.3-0.3-0.6-0.5-0.9c-0.4,0.7,0.2,1.9-0.1,3.8c-0.1,0.9-0.6,2-1.1,3.2c1.6-0.4,2.9-0.4,3.3-1
				C20.6,14.7,20.4,13.7,20.8,13.6z"/>
		</g>
		<path class="st0" d="M34.2,11.1c1-0.9-0.4-1.9-1.1-2.9c-0.1-0.1-0.3-0.1-0.3-0.1c-0.7,0-2.5,0-6.2-0.5C22.9,7.1,19.9,8.3,19,9
			c-0.1,0.1-0.2,0.2-0.2,0.2c0.1,0.2,0.2,0.5,0.3,0.7c0.6,0.9,0.7,1.7,1.1,2.3c0.4,0.5,1.3,1.1,1.5,1.6c0.2,0.5,0.8,1.9,1.1,3.1
			c0.4,1.2,1.4,7.8,2.9,9.8c0,0,1.3,0.5,1.8-0.9c0.5-1.3-0.4-2.3-1.5-3.7c-1-1.5-1.2-2.5-1.5-3.3c-0.3-0.8-0.6-2.2-1.8-4.2
			c-1.3-2,0.2-1.2,0.7-2.1c0.4-0.9,0.9-0.5,3.2-0.3c2.2,0.2,3.2,0.3,3.2,0.3s1.2,0.1,3,0C34.5,12.3,33.2,11.9,34.2,11.1z"/>
		<g>
			<path class="st5" d="M38,13.7c0-0.2-0.1-0.4-0.1-0.5C37.9,13.4,38,13.5,38,13.7L38,13.7z"/>
			<path class="st5" d="M37.8,12.8c-0.5-2.1-4.3-4.7-5-4.7c-0.3,0-0.7,0-1.2,0c0.3,0.2,0.6,0.5,0.8,0.8c0.5,0.7,1.5,1,1.7,1.9
				c0.2,0.9-0.3,0.8-1.8,0.8c-1.5,0-4.9,0.7-6.5,0.5c-1.6-0.1-2.1-0.5-3-0.3C22,12,22,12.7,22.5,13.1c0,0,0.2,0.2,0.6,0.4
				c0.3,0,0.7,0,1.2,0c2.2,0.1,4.4,0.3,6.3-0.1c1.9-0.5,3.4-1,4.8-1C36.8,12.5,37.3,12.4,37.8,12.8z"/>
			<path class="st5" d="M37.9,13c0,0.1,0,0.1,0,0.2C37.9,13.1,37.9,13,37.9,13z"/>
		</g>
	</g>
	<g>
		<path class="st0" d="M5.7,22.8c2-1,8.9-2.1,11.2-2.1c2.4,0.1,2.8-0.2,4.5-0.7c1.7-0.6,1.2-1.1,2.6-0.5c1.4,0.6,5.9,3.3,8.2,3.6
			c2.3,0.3,3.4-0.5,4.2,0.4c0.7,0.9,1.9,3.9,1.4,7.5c-0.5,3.7-0.5,5.5-0.5,6.2c0,0.7-2.6,4.5-4.7,5c-2.1,0.5-9.2,0.8-11.6,0.7
			c-2.4-0.1-6.2,0.2-8.7,1.1c-2.5,1-4.5,1.2-5.7-0.2c-1.1-1.4-2.3-4.1-2.4-7.5c-0.1-3.4,0.8-12.4,1.1-13C5.7,22.8,5.7,22.8,5.7,22.8
			z"/>
		<path class="st1" d="M1.2,21c0-1.1,0.8-1.7,0.9-2.2c0.1-0.5-0.3-1.1,0.5-0.5c0.7,0.6,1.4,1.4,1.5,2.3c0.1,0.9,0.5,2.1,0,2.8
			c-0.5,0.7-0.9,1.1-1.6,1.1c-0.7,0-1.2,0.1-1.2-0.9c-0.1-1.1-0.4-1-0.3-1.6c0-0.6,0-1,0-1L1.2,21z"/>
		<path class="st0" d="M3.1,19.8c0,0,0.5-0.1,0.8-0.2c-0.3-0.5-0.7-1-1.2-1.4c-0.7-0.6-0.3,0-0.5,0.5c-0.1,0.4-0.7,0.8-0.9,1.6
			c0.2,0.3,0.5,0.5,0.7,0.3C2.4,20.4,3.1,19.8,3.1,19.8z"/>
		<path class="st2" d="M2.4,23.4c0,0.5,0,0.6,0.6,0.5c0.2,0,0.5,0,0.7,0c0.1-0.1,0.3-0.3,0.4-0.5c0.5-0.7,0.1-1.9,0-2.8
			C4.1,20,3.8,19.5,3.4,19c-0.2,0.1-0.3,0.1-0.4,0.3c-0.1,0.3-0.7,0.8-0.7,0.8c-0.4,0.6-0.4,0-0.3,0.9C2.1,22,2.4,22.9,2.4,23.4z"/>
		<g>
			<path class="st3" d="M5.8,22.3l0.4-0.1c2.6-1,8.7-1.9,10.8-1.8c2,0.1,2.5-0.1,3.9-0.5l0.5-0.2c0.6-0.2,0.9-0.4,1.1-0.5
				c0.6-0.3,0.9-0.4,1.8,0c0.4,0.2,1.1,0.5,1.9,1c0.9,0.5,2,1,3,1.5l0.2,0.1l0.1,0.2c0.2,0.6,0.4,1.3,0.6,1.9c0.2,0.7,0.8,0.8,1.3,1
				c0.3,0.1,0.5,0.1,0.7,0.2c0.4,0.2,0.3,0.5,0.3,0.6c-0.1,0.4-0.3,0.5-3.8,0.1c-1.5-0.2-9.6,1.2-10.8,1.5c-0.6,0.1-2.7,1.2-4.4,2
				c-3.5,1.7-3.5,1.7-3.8,1.5l-0.2-0.1l-0.1-0.2c-0.1-0.2-0.2-0.5-0.5-1.3c-0.1-0.2-0.3-0.5-0.5-0.9c-0.7-1.3-1.9-3.3-2.5-5.5
				L5.8,22.3z M28.7,22.3c-1-0.5-2-1-2.9-1.4c-0.8-0.4-1.5-0.8-1.9-0.9c-0.7-0.3-0.7-0.3-1.1-0.1c-0.2,0.1-0.6,0.4-1.3,0.6l-0.5,0.2
				c-1.3,0.5-1.9,0.7-4.2,0.6c-2-0.1-7.5,0.8-10.1,1.7c0.6,1.9,1.7,3.8,2.3,5c0.2,0.4,0.4,0.7,0.5,0.9c0.2,0.5,0.4,0.8,0.5,1.1
				c0.6-0.2,1.9-0.9,2.9-1.4c1.9-0.9,3.9-1.9,4.5-2.1c1.1-0.3,9.4-1.7,11.1-1.5c0.4,0,0.7,0.1,1.1,0.1c-0.2-0.2-0.4-0.5-0.5-0.9
				C29,23.5,28.8,22.8,28.7,22.3z"/>
		</g>
		<path class="st0" d="M19.1,22.3c1.3-0.5,1.8-0.7,2-0.6c0.3,0.1-0.8,1-1.1,2.2c-0.3,1.2-0.2,2-0.2,2.2c0,0,0,0.1,0.1,0.2
			c2.9-0.5,7.5-1.2,8.6-1.1c1.6,0.2,3.9,0.4,3.3,0.1c-0.5-0.2-1.3-0.2-1.9-0.7c-0.7-0.1-1.6-0.3-2.6-0.5c-2.2-0.5-4.3-0.4-4.7-1.1
			c-0.5-0.8-0.2-1.3,0-1.4c0.2-0.1,1.2,0.1,1.4-0.6c0.1-0.3,0.3-0.8,0.5-1.2c-0.2-0.1-0.4-0.2-0.5-0.2c-1.4-0.6-0.9-0.1-2.6,0.5
			c-1.7,0.6-2.1,0.8-4.5,0.7c-1.4,0-4.4,0.3-7,0.9c1.9-0.3,3.2,0.5,5.3,0.8C17.2,22.7,17.8,22.7,19.1,22.3z"/>
		<path class="st4" d="M33,39.9c0-1.4-0.6-2.9-1-4.8c-0.5-1.9-0.2-4.2-0.1-6.3c0.1-2.2,0.2-2.9,0-3.4c-0.2-0.6-1.9,0-2.3,0
			c-0.5-0.1-4.4-0.5-4.4-0.5h-4.6l-6.2,1.5l-4.6,4c0,0-0.5,1.1-1.1,2.6c-0.6,1.5-2.9,7.4-2.9,9.2c0,0,2-0.1,3.6,0.2
			c1.5,0.3,5.8-0.4,7.5-0.3c1.7,0.1,1.7,0.1,3.8,0.7c0.3,0.1,0.8,0.2,1.4,0.3c3,0,8.7-0.3,10.6-0.8C33.1,41.8,33,41.2,33,39.9z"/>
		<path class="st5" d="M7.5,24.8c0.9,1.7,3.3,3.9,4.3,3.8c1-0.1,2.2-0.6,2.8-0.9c0.7-0.3,3-2,4.8-2c1.8,0,3.7-0.3,4.7-0.1
			c1.1,0.1-4,1.1-5.8,1.9c-1.8,0.8-4,1.3-5.4,2.5c-1.4,1.2-1.5,1.5-2.7,2.4c-1.2,0.9-4.5,10.2-4.4,9.8c0.2-1.5,2.9-10.9,4-11.9
			C9.5,29.4,6.6,25.7,7.5,24.8z"/>
		<path class="st5" d="M18.3,42.2c0.2-0.1,0.3-0.2,0.3-0.3c0.2-0.3,0.7-4.2,2.3-7c1.6-2.8,0-1.8-0.8-2c-0.7-0.2-3.2,0-4.8,0.6
			c-1.6,0.6-1.4,1.6-2.3,3.6c-0.9,2.1-1.6,3.2-2.4,4c-0.8,0.8-3.1,0.5-3.8,0.5c0,0-0.7,0.5-0.7,0.5l0,0c0.7,0,2,0,3.1,0.3
			c1.5,0.3,5.8-0.4,7.5-0.3C17.5,42.1,17.9,42.2,18.3,42.2z"/>
		<g>
			<path class="st5" d="M31.9,25.3c0.1,0.2,0.1,0.4,0.1,0.8c0,0.1,0,0.1,0,0.2c0,0,0,0.1,0,0.1c0,0.2,0,0.4,0,0.6l0,0
				c1.2-1.9,1.9-2.5,3.3-3.2c0.3-0.2,0.6-0.3,0.9-0.5c-0.7-0.4-1.9,0.2-3.8-0.1c-0.9-0.1-2-0.6-3.2-1.1c0.4,1.6,0.4,2.9,1,3.3
				C30.7,25.1,31.7,24.9,31.9,25.3z"/>
		</g>
		<path class="st0" d="M34.4,38.7c0.9,1,1.9-0.4,2.9-1.1c0.1-0.1,0.1-0.3,0.1-0.3c0-0.7,0-2.5,0.5-6.2c0.5-3.7-0.7-6.6-1.4-7.5
			c-0.1-0.1-0.2-0.2-0.2-0.2c-0.2,0.1-0.5,0.2-0.7,0.3c-0.9,0.6-1.7,0.7-2.3,1.1c-0.5,0.4-1.1,1.3-1.6,1.5c-0.5,0.2-1.9,0.8-3.1,1.1
			c-1.2,0.4-7.8,1.4-9.8,2.9c0,0-0.5,1.3,0.9,1.8c1.3,0.5,2.3-0.4,3.7-1.5c1.5-1,2.5-1.2,3.3-1.5c0.8-0.3,2.2-0.6,4.2-1.8
			c2-1.3,1.2,0.2,2.1,0.7c0.9,0.4,0.5,0.9,0.3,3.2c-0.2,2.2-0.3,3.2-0.3,3.2s-0.1,1.2,0,3C33.1,39,33.5,37.7,34.4,38.7z"/>
		<g>
			<path class="st5" d="M31.8,42.5c0.2,0,0.4-0.1,0.5-0.1C32.1,42.4,31.9,42.4,31.8,42.5L31.8,42.5z"/>
			<path class="st5" d="M32.7,42.3c2.1-0.5,4.7-4.3,4.7-5c0-0.3,0-0.7,0-1.2c-0.2,0.3-0.5,0.6-0.8,0.8c-0.7,0.5-1,1.5-1.9,1.7
				c-0.9,0.2-0.8-0.3-0.8-1.8c0-1.5-0.7-4.9-0.5-6.5c0.1-1.6,0.5-2.1,0.3-3c-0.2-0.9-0.9-0.9-1.3-0.4c0,0-0.2,0.2-0.4,0.6
				c0,0.3,0,0.7,0,1.2c-0.1,2.2-0.3,4.4,0.1,6.3c0.5,1.9,1,3.4,1,4.8C33,41.2,33.1,41.8,32.7,42.3z"/>
			<path class="st5" d="M32.5,42.3c-0.1,0-0.1,0-0.2,0C32.4,42.4,32.4,42.4,32.5,42.3z"/>
		</g>
	</g>
	<g>
		<path class="st0" d="M45.6,44.5c-1,0.5-4.4,1.3-5.6,1.3c-1.2,0-1.4,0.2-2.2,0.5c-0.8,0.3-0.6,0.6-1.3,0.3c-0.7-0.2-3-1.5-4.2-1.6
			c-1.2-0.1-1.7,0.3-2.1-0.1c-0.4-0.4-1-1.9-0.9-3.7c0.1-1.9,0.1-2.8,0.1-3.1c0-0.4,1.2-2.3,2.2-2.6c1-0.3,4.6-0.7,5.8-0.7
			c1.2,0,3.1-0.3,4.3-0.8c1.2-0.6,2.2-0.7,2.8-0.1c0.6,0.7,1.3,2,1.4,3.7c0.1,1.7-0.1,6.2-0.2,6.5C45.6,44.5,45.6,44.5,45.6,44.5z"
			/>
		<path class="st1" d="M47.8,45.3c0,0.6-0.4,0.9-0.4,1.1c0,0.2,0.2,0.5-0.2,0.3c-0.4-0.3-0.7-0.7-0.8-1.1c-0.1-0.4-0.3-1.1-0.1-1.4
			c0.2-0.3,0.4-0.6,0.8-0.6c0.3,0,0.6-0.1,0.6,0.4c0.1,0.5,0.2,0.5,0.2,0.8c0,0.3,0,0.5,0,0.5L47.8,45.3z"/>
		<path class="st0" d="M47,45.9c0,0-0.3,0-0.4,0.1c0.2,0.3,0.4,0.5,0.6,0.6c0.4,0.3,0.2,0,0.2-0.3c0-0.2,0.3-0.4,0.4-0.8
			c-0.1-0.2-0.3-0.2-0.4-0.1C47.3,45.6,47,45.9,47,45.9z"/>
		<path class="st2" d="M47.2,44.1c0-0.2,0-0.3-0.3-0.3c-0.1,0-0.2,0-0.4,0c-0.1,0.1-0.1,0.2-0.2,0.3c-0.2,0.3,0,0.9,0.1,1.4
			c0,0.3,0.2,0.6,0.4,0.8c0.1,0,0.2-0.1,0.2-0.1c0.1-0.2,0.3-0.4,0.3-0.4c0.2-0.3,0.2,0,0.1-0.5C47.4,44.8,47.2,44.3,47.2,44.1z"/>
		<g>
			<path class="st3" d="M45.5,44.7l-0.2,0.1C44.1,45.4,41.1,46,40,46c-1,0-1.3,0.1-1.9,0.4l-0.3,0.1c-0.3,0.1-0.4,0.2-0.5,0.3
				c-0.3,0.2-0.4,0.2-0.9,0c-0.2-0.1-0.6-0.2-1-0.4c-0.5-0.2-1-0.5-1.6-0.7l-0.1,0l0-0.1c-0.1-0.3-0.2-0.7-0.3-0.9
				c-0.1-0.3-0.4-0.4-0.7-0.4c-0.1,0-0.3,0-0.4-0.1c-0.2-0.1-0.2-0.2-0.2-0.3c0.1-0.2,0.1-0.3,1.9-0.1c0.8,0,4.7-0.9,5.4-1.1
				c0.3-0.1,1.3-0.7,2.1-1.1c1.7-0.9,1.7-0.9,1.8-0.9l0.1,0l0,0.1c0,0.1,0.1,0.3,0.3,0.7c0,0.1,0.1,0.2,0.3,0.4
				c0.4,0.6,1.1,1.6,1.4,2.7L45.5,44.7z M34.1,45.4c0.5,0.2,1,0.4,1.5,0.6c0.4,0.2,0.8,0.3,1,0.4c0.4,0.1,0.4,0.1,0.5,0
				c0.1-0.1,0.3-0.2,0.6-0.3l0.2-0.1c0.7-0.3,1-0.4,2.1-0.4c1,0,3.7-0.6,5-1.1c-0.3-1-0.9-1.9-1.3-2.4c-0.1-0.2-0.2-0.4-0.3-0.5
				c-0.1-0.2-0.2-0.4-0.3-0.5c-0.3,0.1-0.9,0.5-1.4,0.8c-0.9,0.5-1.9,1.1-2.2,1.2c-0.5,0.2-4.6,1.1-5.5,1.1c-0.2,0-0.4,0-0.5,0
				c0.1,0.1,0.2,0.2,0.3,0.4C33.9,44.8,34,45.1,34.1,45.4z"/>
		</g>
		<path class="st0" d="M38.9,45.1c-0.6,0.3-0.9,0.4-1,0.3c-0.1,0,0.3-0.5,0.5-1.1c0.1-0.6,0.1-1,0-1.1c0,0,0-0.1,0-0.1
			c-1.4,0.3-3.7,0.8-4.3,0.8c-0.8,0-1.9-0.1-1.6,0c0.2,0.1,0.7,0.1,1,0.3c0.4,0,0.8,0.1,1.3,0.2c1.1,0.2,2.1,0.1,2.4,0.4
			c0.2,0.4,0.1,0.7,0,0.7c-0.1,0-0.6,0-0.7,0.3c0,0.1-0.1,0.4-0.2,0.6c0.1,0,0.2,0.1,0.3,0.1c0.7,0.2,0.5,0,1.3-0.3
			c0.8-0.3,1-0.5,2.2-0.5c0.7,0,2.2-0.3,3.5-0.6c-0.9,0.2-1.6-0.2-2.7-0.2C39.8,44.9,39.5,44.8,38.9,45.1z"/>
		<path class="st4" d="M31.5,36.7c0,0.7,0.4,1.4,0.6,2.4c0.3,0.9,0.2,2.1,0.2,3.2c0,1.1,0,1.4,0.1,1.7c0.1,0.3,0.9-0.1,1.2-0.1
			c0.2,0,2.2,0.1,2.2,0.1l2.3-0.1l3.1-0.9l2.2-2.1c0,0,0.2-0.6,0.5-1.4c0.3-0.8,1.2-3.8,1.2-4.7c0,0-1,0.1-1.8,0
			c-0.8-0.1-2.9,0.4-3.7,0.4c-0.8,0-0.9,0-1.9-0.2c-0.2,0-0.4-0.1-0.7-0.1c-1.5,0.1-4.4,0.4-5.2,0.7C31.4,35.7,31.4,36,31.5,36.7z"
			/>
		<path class="st5" d="M44.6,43.5c-0.5-0.8-1.7-1.9-2.2-1.8c-0.5,0.1-1.1,0.3-1.4,0.5c-0.3,0.2-1.5,1.1-2.3,1.1
			c-0.9,0-1.8,0.2-2.4,0.2c-0.5,0,2-0.7,2.8-1.1c0.9-0.4,2-0.8,2.6-1.4c0.7-0.6,0.7-0.8,1.3-1.3c0.6-0.5,2-5.2,2-5
			c-0.1,0.7-1.1,5.5-1.7,6C43.5,41.3,45,43.1,44.6,43.5z"/>
		<path class="st5" d="M38.7,35.1c-0.1,0.1-0.1,0.1-0.2,0.2c-0.1,0.2-0.2,2.1-1,3.6c-0.7,1.5,0.1,0.9,0.4,1c0.4,0.1,1.6-0.1,2.4-0.4
			c0.8-0.3,0.7-0.8,1-1.9c0.4-1.1,0.7-1.6,1.1-2.1c0.4-0.4,1.6-0.3,1.9-0.3c0,0,0.3-0.3,0.3-0.3l0,0c-0.4,0-1,0-1.5,0
			c-0.8-0.1-2.9,0.4-3.7,0.4C39.1,35.1,38.9,35.1,38.7,35.1z"/>
		<g>
			<path class="st5" d="M32.4,43.9c0-0.1-0.1-0.2-0.1-0.4c0,0,0-0.1,0-0.1c0,0,0,0,0,0c0-0.1,0-0.2,0-0.3l0,0
				c-0.6,1-0.9,1.3-1.6,1.7c-0.2,0.1-0.3,0.2-0.4,0.3c0.4,0.2,0.9-0.1,1.9,0c0.4,0,1,0.2,1.7,0.5c-0.2-0.8-0.3-1.4-0.6-1.6
				C33,44,32.5,44.1,32.4,43.9z"/>
		</g>
		<path class="st0" d="M30.8,37.3c-0.5-0.5-0.9,0.2-1.4,0.6c0,0.1,0,0.1,0,0.2c0,0.4,0.1,1.3-0.1,3.1c-0.1,1.9,0.5,3.3,0.9,3.7
			c0,0,0.1,0.1,0.1,0.1c0.1,0,0.2-0.1,0.3-0.2c0.4-0.3,0.8-0.4,1.1-0.6c0.3-0.2,0.5-0.7,0.8-0.8c0.3-0.1,0.9-0.4,1.5-0.7
			c0.6-0.2,3.9-0.9,4.8-1.7c0,0,0.2-0.7-0.5-0.9s-1.1,0.3-1.8,0.8c-0.7,0.6-1.2,0.7-1.6,0.8c-0.4,0.2-1.1,0.3-2.1,1
			c-1,0.7-0.6-0.1-1.1-0.3c-0.4-0.2-0.3-0.5-0.2-1.6c0-1.1,0.1-1.6,0.1-1.6s0-0.6-0.1-1.5C31.4,37.1,31.2,37.8,30.8,37.3z"/>
		<g>
			<path class="st5" d="M32,35.4c-0.1,0-0.2,0-0.3,0.1C31.8,35.4,31.9,35.4,32,35.4L32,35.4z"/>
			<path class="st5" d="M31.6,35.5c-1,0.3-2.2,2.3-2.2,2.6c0,0.1,0,0.3,0,0.6c0.1-0.1,0.2-0.3,0.4-0.4c0.4-0.3,0.5-0.8,0.9-0.9
				c0.4-0.1,0.4,0.1,0.4,0.9c0.1,0.8,0.5,2.4,0.4,3.2c0,0.8-0.2,1.1-0.1,1.5c0.1,0.4,0.5,0.4,0.7,0.1c0,0,0.1-0.1,0.2-0.3
				c0-0.2,0-0.4,0-0.6c0-1.1,0.1-2.2-0.2-3.2c-0.3-0.9-0.6-1.7-0.6-2.4C31.4,36,31.4,35.7,31.6,35.5z"/>
			<path class="st5" d="M31.6,35.4C31.7,35.4,31.7,35.4,31.6,35.4C31.7,35.4,31.7,35.4,31.6,35.4z"/>
		</g>
	</g>
</g>
</svg>
