<?xml version="1.0" encoding="utf-8"?>
<!-- Generator: Adobe Illustrator 28.0.0, SVG Export Plug-In . SVG Version: 6.00 Build 0)  -->
<svg version="1.1" id="Слой_1" xmlns="http://www.w3.org/2000/svg" xmlns:xlink="http://www.w3.org/1999/xlink" x="0px" y="0px"
	 viewBox="0 0 48 48" style="enable-background:new 0 0 48 48;" xml:space="preserve">
<style type="text/css">
	.st0{opacity:0.46;fill:#121613;}
	.st1{fill:#1B1B1C;}
	.st2{fill:#17171A;}
	.st3{fill:#131419;}
	.st4{fill:#261717;}
	.st5{fill:#241A1E;}
	.st6{fill:#2B2130;}
	.st7{fill:#101218;}
	.st8{fill:#1C1D1F;}
	.st9{opacity:0.26;fill:#0D0C12;}
	.st10{fill:#2D292C;}
	.st11{fill:#F7ECCE;}
	.st12{fill:#18171A;}
	.st13{fill:#151218;}
	.st14{fill:#111118;}
	.st15{opacity:0.64;fill:#0D0C12;}
	.st16{fill:#3A383A;}
	.st17{fill:#151419;}
	.st18{fill:#1C1D1C;}
	.st19{fill:#131519;}
	.st20{fill:#352629;}
	.st21{fill:#17151A;}
	.st22{fill:#241D20;}
	.st23{fill:#2B2525;}
	.st24{opacity:0.43;fill:#0D0C12;}
</style>
<g>
	<path class="st0" d="M19.2,29.7c-5.5,0-10.8,0.8-15.9,1.6l-0.6,0.3C1.2,32,0,32.4,0.5,33.6c0.9,2.3,8.1,1.9,6.3,6.9
		c-0.5,1.3-3.6,1.5-3.3,2.7c0.3,1.7,5.1,3.2,6.3,3.4c2.1,0.3,5.5,0.8,7.5,0c1.7-0.7,2.3-2.3,4.1-3.1c1.7-0.7,5.3-1.1,7.2-0.6
		c2.4,0.7,3.5,1.5,5.9,1.6c3.2,0,11.8-1.9,12.4-3.7c0.6-1.8-4.9-1.2-7.5-2.1c-1.8-0.7-2.5-1.1-3.4-2.5c-0.8-1.2-0.4-2.7-2.1-3.5
		c0.2-0.3,0.3-0.7,0.5-1C33,28.9,22.5,29.7,19.2,29.7z"/>
	<g>
		<g>
			<g>
				<path class="st1" d="M24.5,8.5h0.3c0,0,0-0.1,0-0.1C24.7,8.6,24.6,8.5,24.5,8.5z"/>
				<path class="st1" d="M24.9,8.5h-0.1c0.3,1.2-0.6,2.7-1,3.7c-0.8,1.7-2.6,4-2.7,5.8c-0.1,0.8,0.2,2,0.3,2.8
					c0.1,1.3,0.2,2.8,0.6,4c0.6,1.7,1.4,3.5,2.1,5.2c0.4,0.8,1.1,1.9,0.9,2.7c3-0.3,6.6-1.1,9.3-2.6c-0.6-1.1-0.7-3.4-1.2-4.6
					c-0.2-0.5-1-0.9-1.4-1.3c-0.4-0.4-2.7-11.7-2.1-12.9C28.2,10.6,26.4,9.3,24.9,8.5z"/>
				<path class="st2" d="M28.1,10.5c-1.1-0.7-2.2-1.4-3.2-1.9h-0.1c0.3,1.2-0.6,2.7-1,3.7c-0.8,1.7-2.6,4-2.7,5.8
					c-0.1,0.8,0.2,2,0.3,2.8c0.1,1.3,0.2,2.8,0.6,4c0.6,1.7,1.4,3.5,2.1,5.2c0.4,0.8,1.1,1.9,0.9,2.7c3-0.3,6.6-1.1,9.3-2.6
					c-0.5-0.9-0.6-2.6-0.9-3.8c-0.6-0.1-1.1-0.3-1.6-0.6c-0.8-0.5-1-1.7-1.3-2.5c-0.4-1.2-0.8-2.4-1.2-3.7c-0.6-0.7-1-1.5-0.9-2.7
					C28.6,14.7,28.2,12.6,28.1,10.5z"/>
				<path class="st3" d="M27.2,9.9c-0.7-0.4-1.4-1-2.2-1.6l-0.2,0.2c0.3,1.2-0.6,2.7-1,3.7c-0.8,1.7-2.6,4-2.7,5.8
					c-0.1,0.8,0.2,2,0.3,2.8c0.1,1.3,0.2,2.8,0.6,4c0.6,1.7,1.4,3.5,2.1,5.2c0.4,0.8,1.1,1.9,0.9,2.7c2.6-0.3,5.8-0.9,8.3-2.1
					c-1.3,0.3-2.7,0-3.8-1.2c-1.7-1.7-1.4-4.2-0.9-6.3c0.2-0.7,0.6-1.6,0.3-2.4c-0.3-0.8-1.5-1.4-1.9-2.3c-1.3-2.7-1.5-5.5-0.5-8.4
					C26.6,10,27.2,10,27.2,9.9z"/>
				<path class="st4" d="M24.5,12.1c0.1-1.2,0.6-2.6,0.5-3.7c-1.4,0.2-2.8,0.5-4.2,0.8c-0.9,0.2-1.9,0.2-2.7,0.5
					c-0.6,0.2-0.7,0.3-0.9,1c-0.4,1.6-0.6,3.1-0.9,4.7c-0.5,2.3-1.1,4.5-1.6,6.8c-0.4,2.3-1.4,4.8-2.5,6.8c0.6,0.6,1.9,0.8,2.7,1.1
					c1,0.3,1.8,0.6,2.8,0.8c2.4,0.5,5.3,0.7,7.5,2c0.4-1.1,0.4-2.5,0.6-3.7c0.3-2,0.4-4.2,0.8-6.2c0.1-0.6,0.4-1.1,0.2-1.7
					c-0.3-0.6-1-1.1-1.3-1.7c-0.7-1.1-1.1-1.9-1.1-3.2C24.3,15,24.4,13.5,24.5,12.1z"/>
				<path class="st5" d="M17.4,10c-0.1,0.1-0.1,0.3-0.2,0.6c-0.4,1.6-0.6,3.1-0.9,4.7c-0.5,2.3-1.1,4.5-1.6,6.8
					c-0.4,2.3-1.4,4.8-2.5,6.8c0.6,0.6,1.9,0.8,2.7,1.1c1,0.3,1.8,0.6,2.8,0.8c1.3,0.3,2.8,0.5,4.2,0.8c-1.8-1-4.4-2.1-5.5-3.6
					c-2-2.6-1-5-0.5-8.1C16.4,16.6,16.8,13.3,17.4,10z"/>
				<path class="st6" d="M24.5,12.1c0.1-1.2,0.6-2.6,0.5-3.7c-1.4,0.2-2.8,0.5-4.2,0.8c-0.9,0.2-1.9,0.2-2.7,0.5
					c-0.6,0.2-0.7,0.3-0.9,0.9c0.6-0.1,5.3-0.9,6-1c2.5-0.1,0.1,5.9,0.4,8.2c0.3,2.8,1.7,2.3,1.7,5.2c0,2.9-0.4,5.6-1.4,8.3
					c-0.1,0.3-0.2,0.5-0.4,0.8c0.6,0.2,1.1,0.4,1.6,0.7c0.4-1.1,0.4-2.5,0.6-3.7c0.3-2,0.4-4.2,0.8-6.2c0.1-0.6,0.4-1.1,0.2-1.7
					c-0.3-0.6-1-1.1-1.3-1.7c-0.7-1.1-1.1-1.9-1.1-3.2C24.3,15,24.4,13.5,24.5,12.1z"/>
			</g>
			<path class="st3" d="M18.4,15.9C18.4,15.9,18.4,15.9,18.4,15.9c-0.1,0.1-0.1,0.2-0.2,0.3c0.2,0,0.3,0,0.5,0
				c0.2-0.6,0.9,0.1,1.5-0.1c-0.3-0.1-1.3,0-1.4-0.8C18.6,15.4,18.4,15.6,18.4,15.9z"/>
			<path class="st6" d="M18.7,16.2c-0.1,0.1-0.4,0.1-0.5,0.1v0c0,0.1,0.3,0.1,0.4,0.1c0.2,0,0.2-0.1,0.3-0.2c0.3-0.1,0.7,0,1-0.1
				c-0.3,0-0.7-0.1-1-0.1C18.7,15.9,18.8,16.1,18.7,16.2z"/>
			<path class="st3" d="M21.4,17.5c0.8-0.5,3.7-0.1,3.2-1.6l0.1-0.2C23.7,16.4,22.4,16.8,21.4,17.5z"/>
			<path class="st6" d="M23.7,17.1c-0.7,0.1-1.5,0.3-2.3,0.6c0.8,0,1.8,0.2,2.6,0.1c0-0.2-0.1-0.3-0.2-0.4L23.7,17.1z"/>
			<g>
				<path class="st3" d="M17.3,25.2c0.3-0.1,0.5-0.3,0.6-0.6c-0.1,0-0.3,0-0.4,0C17.6,24.7,17.5,24.9,17.3,25.2z"/>
				<path class="st5" d="M17.3,25.3L17.3,25.3c0.1,0.1,0.3,0,0.5,0.1c0.1-0.1,0.1-0.3,0.1-0.4c0-0.1,0.2-0.2,0.2-0.4
					c-0.1,0.1-0.1,0.1-0.2,0.2c-0.1,0.1-0.1,0.1-0.1,0.2C17.7,25.2,17.4,25.3,17.3,25.3z"/>
			</g>
			<g>
				<path class="st7" d="M30.7,27.2c0.2,0.2,0.5,0.4,0.8,0.3c0-0.1-0.1-0.3-0.2-0.4C31.3,27.2,31,27.2,30.7,27.2z"/>
				<path class="st8" d="M31.2,27.6c0.1,0,0.3,0.1,0.4,0c-0.1,0-0.2-0.1-0.3-0.1c-0.1,0-0.2,0-0.2,0c-0.2,0-0.3-0.2-0.4-0.3l0,0
					c0,0.2,0.1,0.3,0.1,0.5C30.9,27.7,31,27.6,31.2,27.6z"/>
			</g>
		</g>
		<path class="st9" d="M26.1,32.7c0.2,0,0.5-0.1,0.7-0.1c0.1,0,0.2,0,0.4-0.1c0.3,0,0.5-0.1,0.8-0.1c0.1,0,0.2,0,0.3-0.1
			c0.3-0.1,0.6-0.1,0.8-0.2c0.1,0,0.2,0,0.3-0.1c0.3-0.1,0.6-0.1,0.9-0.2c0.1,0,0.2,0,0.2-0.1c0.3-0.1,0.6-0.2,0.9-0.3
			c0.1,0,0.1,0,0.2-0.1c0.3-0.1,0.6-0.2,0.9-0.3c0.1,0,0.1,0,0.2-0.1c0.6-0.2,1.2-0.5,1.7-0.8c-0.3-0.4-0.9-1.7-1.1-2.1
			c-1.2-2.3-2.9-2.9-4.9-3.1c-1.1-0.1-3.8,0.4-4.8,0c-2.3-0.9-2.2-1.3-2.1-3.6c0.1-2.2,0.1-3.9-1.9-4.4c-0.8-0.2-2.6,0.3-3.4,0
			c-0.4,1.7-0.8,3.3-1.2,5c-0.4,2.3-1.4,4.8-2.5,6.8c0.6,0.6,1.9,0.8,2.7,1.1c1,0.3,1.8,0.6,2.8,0.8c0.3,0.1,0.6,0.1,0.9,0.2
			c1.1,0.2,2.2,0.4,3.2,0.6c0,0,0,0,0,0c0.6,0.1,1.1,0.3,1.7,0.5c0,0,0,0,0,0c0.3,0.1,0.6,0.2,0.8,0.3c0.1,0,0.1,0.1,0.2,0.1
			c0.1,0,0.1,0.1,0.2,0.1c0.1,0.1,0.2,0.1,0.3,0.2c0,0,0,0.1,0,0.1C25.4,32.8,25.7,32.8,26.1,32.7z"/>
	</g>
	<g>
		<g>
			<path class="st10" d="M15.2,18.9c-0.1-3-2.3-3.1-3.9-4c-1.6-0.9-3.3-0.9-4.7,1.6C5.5,18.3,5,22.6,4.3,25
				c-0.8,2.7-1.8,4.9-2.9,7.5c0.9,1.1,2.8,1.3,3.9,2c1.2,0.7,2.3,2,3.6,1.5c1.3-0.6,2.7-2.1,3.9-3.4c0.8-0.9,2.7-2.4,3-3.8
				c0-1.7-0.4-3.3-0.6-5C15.2,22.1,15.3,20.5,15.2,18.9z"/>
			<path class="st4" d="M11.4,14.8c-1.5-0.8-3-0.9-4.4,1.2C6.8,19.8,6.4,23.7,6,27.6c0.8,0.1,1.6,0.3,2.4,0.4c2,0.4,2.7-1.6,4.2-3.9
				c0.9-1.4,1.7-2.6,2.6-3.7c0-0.5,0-1.1,0-1.6C15.1,15.9,12.9,15.7,11.4,14.8z"/>
			<path class="st11" d="M6.9,16C6.8,19.8,6.4,23.7,6,27.6c0.8,0.1,1.6,0.3,2.4,0.4c2,0.4,2.7-1.6,4.2-3.9c0.9-1.4,1.7-2.6,2.6-3.7
				c0-0.5,0-1.1,0-1.6c0-0.3,0-0.5-0.1-0.8c0,0-2.4,2.3-5.9,7.8c-0.4,0.6-2.5-1.7-2.5-1.7c0-0.6,0.6-8.7,0.6-8.7
				C7.1,15.7,7,15.8,6.9,16z"/>
			<path class="st12" d="M8.2,25.9c-0.4-0.5-1.2-0.8-2-0.9c-1,1.1-2.1,2.5-3.2,3.5c-0.5,1.3-1.1,2.6-1.7,4c0.9,1.1,2.8,1.3,3.9,2
				c1.2,0.7,2.3,2,3.6,1.5c0.2-0.1,0.5-0.3,0.7-0.4c-0.1-2.9,0.1-5.7,0.1-8.6C9.2,26.8,8.7,26.4,8.2,25.9z"/>
			<path class="st13" d="M8.2,25.9c-0.4-0.5-1.2-0.8-2-0.9c-0.1,0.1-0.2,0.3-0.4,0.4c0.8,0.4,1.5,1.1,1.8,2.1
				c0.2,0.4,0.3,0.8,0.4,1.2c0.3,0.7,0.4,1.5,0.5,2.3c0.1,0.7,0.2,1.4,0.2,2.1c0,0.9-0.1,1.9-0.1,2.8c0.1,0,0.2,0,0.3-0.1
				c0.2-0.1,0.5-0.3,0.7-0.4c-0.1-2.9,0.1-5.7,0.1-8.6C9.2,26.8,8.7,26.4,8.2,25.9z"/>
			<path class="st14" d="M12.9,32.5c0.8-0.9,2.7-2.4,3-3.8c0-1.7-0.4-3.3-0.6-5c-0.1-1.7,0-3.3-0.1-4.9c0-0.3,0-0.5-0.1-0.8
				c-0.5,0.8-1.1,1.6-1.7,2.2c-0.6,0.8-1.2,1.7-1.7,2.5c-0.7,1-1.4,1.9-2.2,2.8c-0.5,0.7-0.6,0.8-0.3,0.3c-0.1,0.2-0.2,0.4-0.3,0.6
				c0.1,3.3,0.3,6.3,0,9.4C10.2,35.4,11.7,33.8,12.9,32.5z"/>
			<path class="st15" d="M9.5,35.6c0-2.7,0.2-5.4,1-8c1.1-3.3,3.7-5.8,4.7-9.1c0-0.2,0-0.3-0.1-0.5c-0.5,0.8-1.1,1.6-1.7,2.2
				c-0.6,0.8-1.2,1.7-1.7,2.5c-0.7,1-1.4,1.9-2.2,2.8c-0.5,0.7-0.6,0.8-0.3,0.3c-0.1,0.2-0.2,0.4-0.3,0.6c0.1,3.3,0.3,6.3,0,9.4
				C9.1,35.8,9.3,35.7,9.5,35.6z"/>
		</g>
		<g>
			<path class="st7" d="M6.9,31.2c0.2,0.2,0.5,0.4,0.8,0.3c0-0.1-0.1-0.3-0.2-0.4C7.5,31.2,7.2,31.2,6.9,31.2z"/>
			<path class="st8" d="M6.9,31.2L6.9,31.2C6.8,31.4,7,31.5,7,31.7c0.1,0,0.3,0,0.4-0.1c0.1,0,0.3,0.1,0.4,0c-0.1,0-0.2-0.1-0.3-0.1
				c-0.1,0-0.2,0-0.2,0C7.1,31.5,7,31.3,6.9,31.2z"/>
		</g>
		<g>
			<path class="st7" d="M4,32.5c0.3,0,0.6-0.1,0.8-0.3c-0.1-0.1-0.3-0.1-0.4-0.1C4.4,32.1,4.3,32.3,4,32.5z"/>
			<path class="st8" d="M4,32.6L4,32.6c0.1,0.2,0.3,0.1,0.4,0.3c0.1-0.1,0.2-0.2,0.2-0.4c0.1-0.1,0.3-0.2,0.3-0.3
				c-0.1,0-0.2,0.1-0.2,0.1c-0.1,0-0.1,0.1-0.2,0.2C4.3,32.6,4.1,32.6,4,32.6z"/>
		</g>
		<path class="st3" d="M11.5,20.5c-0.3-0.2-0.9,0.2-1.2-0.3c0.2,0.4,1.3,0.8,1.7,0.9C11.5,20.8,11.7,20.7,11.5,20.5z"/>
		<path class="st5" d="M10.1,20.3c0,0.1,0,0.2,0.1,0.3c0.4,0.2,0.8,0.5,1.3,0.5C11.1,20.9,10.4,20.8,10.1,20.3
			C10.2,20.3,10.2,20.3,10.1,20.3z"/>
		<g>
			<path class="st3" d="M8.3,16.2c0.2,0,0.5,0,0.6-0.2c0.2,0,0.3,0.1,0.4,0.1c0.2-0.1,0.4-0.2,0.5-0.4c-0.3,0.1-0.6,0-0.9,0.1
				C8.7,15.9,8.5,16.1,8.3,16.2L8.3,16.2z"/>
			<path class="st5" d="M8.4,16.3L8.4,16.3c0.1,0.1,0.3,0.1,0.5,0c0.1,0,0.1,0,0.1,0c0,0,0-0.1,0-0.1c0.1,0,0.2,0,0.3,0
				c-0.1,0-0.3-0.1-0.4-0.2c0,0.1,0,0.1,0,0.2C8.7,16.3,8.5,16.3,8.4,16.3z"/>
		</g>
	</g>
	<g>
		<g>
			<path class="st16" d="M15.4,27.6c-0.9,2.4-6.3,5.9-5.2,8.2c0.7,1.5,5.7,4.6,5.7,4.6c1.3,0.3,12.1-0.9,14.3-1.9c2.1-1,5-2.1,5-3.2
				c-2-4.3-3.5-9.7-9.1-9.6C20.3,25.8,15.9,26.3,15.4,27.6z"/>
			<path class="st11" d="M15.3,27.9c-1.2,2.4-6.1,5.7-5.1,7.9c0.7,1.5,5.7,4.6,5.7,4.6c1.3,0.3,12.1-0.9,14.3-1.9c2.1-1,5-2.1,5-3.2
				c-1.3-2.8-2.5-6.2-4.7-8.1c-2-0.2-5.7,3.4-7.6,4.1C21.6,31.8,16.9,29.3,15.3,27.9z"/>
			<path class="st17" d="M25.7,35.8c0.8,1.1,1.6,2.2,2.3,3.3c0.9-0.2,1.6-0.4,2-0.6c2.1-1,5-2.1,5-3.2c-1.4-2.9-2.5-6.4-4.9-8.3
				c-0.3,0.2-0.7,0.3-1,0.5c-1.5,1-3.5,3.6-5.9,4.5C23.2,32.1,24.6,34.2,25.7,35.8z"/>
			<path class="st14" d="M22.9,32.1C22.9,32.1,22.9,32.1,22.9,32.1C22.8,32.1,22.8,32.1,22.9,32.1z"/>
			<path class="st14" d="M22.9,32.1C22.9,32.1,22.9,32.1,22.9,32.1C22.9,32.1,22.9,32.1,22.9,32.1z"/>
			<path class="st14" d="M30.2,27.1C30.2,27.1,30.2,27.1,30.2,27.1c-0.4,0.1-0.8,0.2-1,0.5c-1.5,1.6-3.9,3.6-6.4,4.5c0,0,0,0,0,0
				c0.8,1.7,1.8,2.2,2.9,3.7c0.8,1.1,1.6,2.2,2.3,3.3c0.9-0.2,1.6-0.4,2-0.6c0.3-0.2,0.7-0.3,1-0.5c-1-1-1.8-2.1-2.3-3.3
				c-1-2.3-0.8-4.7,0.6-6.8C29.7,27.7,30,27.4,30.2,27.1z"/>
			<path class="st4" d="M21.9,32.1c-2.3-0.2-5.2-2.4-6.7-4.2c-1.2,2.4-6.1,5.7-5.1,8c0.7,1.5,5.7,4.6,5.7,4.6
				c1.3,0.3,12.1-0.9,14.3-1.9c0.1,0,0.2-0.1,0.3-0.1c-0.5-0.5-1-1-1.5-1.6c-1.9-2.2-3.6-2.7-5.6-4.8C22.8,32.1,22.4,32.1,21.9,32.1
				z"/>
			<path class="st17" d="M13.7,30.3c0.1-0.2,0.2-0.4,0.4-0.6c0.2-0.3,0.4-0.5,0.6-0.8c0.2-0.3,0.5-0.6,0.7-0.9c0,0-0.1-0.1-0.1-0.1
				c-1.2,2.4-6.1,5.7-5.1,8c0.7,1.5,5.7,4.6,5.7,4.6c0.3,0.1,1.3,0.1,2.7,0c-1.4-0.3-2.9-0.8-3.9-1.7c-2.4-2.1-3.4-5.5-1.1-8.2
				C13.6,30.4,13.6,30.4,13.7,30.3z"/>
			<path class="st1" d="M18.4,40.4c3.7-0.3,10.1-1.1,11.7-1.8c0.1,0,0.2-0.1,0.3-0.1c-0.5-0.5-1-1-1.5-1.6c-1.9-2.2-3.6-2.7-5.6-4.8
				c-0.3,0-1,0-1.4,0c-0.1,3,0.7,4.1-1.5,6.6C19.8,39.3,19.2,39.9,18.4,40.4z"/>
			<path class="st16" d="M18.4,40.4c0.1,0,0.1,0,0.2,0c0.6-0.6,1.3-1.1,2-1.7c2.1-1.9,2.1-3.9,1.9-6.6c-0.2,0-0.4,0-0.5,0
				c-0.1,3,0.7,4.1-1.5,6.6C19.8,39.3,19.2,39.9,18.4,40.4z"/>
			<path class="st18" d="M28.8,36.8C28.8,36.8,28.9,36.8,28.8,36.8C27.4,35.1,28.5,36.5,28.8,36.8z"/>
			<path class="st19" d="M18.4,40.4c2.3-0.2,4.5-0.4,6.8-0.8c1.7-0.3,3.6-0.5,5.2-1.2c-0.5-0.5-1-1-1.5-1.6c0.1,0.1,0.1,0.1,0,0
				c0,0,0,0,0,0c-0.5-0.6-1.1-1.2-1.6-1.8c-0.5-0.3-0.9-0.6-1.3-0.9c1.2,1.6,2.1,3.3,1.7,4.3C26.9,39.8,19.1,39.9,18.4,40.4z"/>
			<path class="st19" d="M28.9,36.8C28.9,36.9,28.9,36.9,28.9,36.8L28.9,36.8z"/>
			<path class="st18" d="M28.9,36.8C28.9,36.9,28.9,36.9,28.9,36.8L28.9,36.8z"/>
			<path class="st18" d="M28.8,36.8C28.9,36.9,29,37,28.8,36.8C28.9,36.8,28.8,36.8,28.8,36.8z"/>
		</g>
		<g>
			<path class="st7" d="M31.2,35.9c0.3,0,0.6-0.1,0.8-0.3c-0.1-0.1-0.3-0.1-0.4-0.1C31.5,35.5,31.4,35.6,31.2,35.9z"/>
			<path class="st8" d="M31.8,35.8c0.1-0.1,0.3-0.2,0.3-0.3c-0.1,0-0.2,0.1-0.2,0.1c-0.1,0-0.1,0.1-0.2,0.2
				c-0.1,0.1-0.4,0.1-0.5,0.1l0,0c0.1,0.1,0.3,0.1,0.4,0.3C31.6,36.1,31.7,35.9,31.8,35.8z"/>
		</g>
		<g>
			<path class="st7" d="M18.8,36.5c0.3,0,0.6-0.1,0.8-0.3c-0.1-0.1-0.3-0.1-0.4-0.1C19.2,36.1,19.1,36.3,18.8,36.5z"/>
			<path class="st11" d="M18.8,36.5L18.8,36.5c0.1,0.2,0.3,0.1,0.4,0.3c0.1-0.1,0.2-0.2,0.2-0.4c0.1-0.1,0.3-0.2,0.3-0.3
				c-0.1,0-0.2,0.1-0.2,0.1c-0.1,0-0.1,0.1-0.2,0.2C19.2,36.5,18.9,36.5,18.8,36.5z"/>
		</g>
		<g>
			<path class="st3" d="M15.9,31.3c0.2,0.1,0.4,0.3,0.6,0.1c0.1,0.1,0.2,0.2,0.3,0.4c0.2,0,0.4,0,0.6,0c-0.3-0.1-0.5-0.3-0.8-0.4
				C16.4,31.3,16.1,31.3,15.9,31.3L15.9,31.3z"/>
			<path class="st11" d="M15.9,31.4L15.9,31.4c0,0.1,0.2,0.2,0.4,0.3c0.1,0,0,0.1,0.1,0c0,0,0.1-0.1,0.1-0.1c0.1,0,0.1,0.1,0.2,0.2
				c0-0.1-0.2-0.2-0.2-0.4c0,0.1-0.1,0.1-0.1,0.2C16.2,31.6,16,31.5,15.9,31.4z"/>
		</g>
	</g>
	<path class="st9" d="M19.4,40.3c-0.6-1.2-0.8-6.4-3.2-7.9c-0.8-0.5-3-0.8-3.9-1.1c-1,1.1-2,2.3-2.3,3.3c0,0,0,0,0,0
		c0,0.1,0,0.1,0,0.2c0,0,0,0,0,0c0,0.1,0,0.1,0,0.2c0,0,0,0,0,0c0,0.1,0,0.1,0,0.2c0,0,0,0,0,0c0,0.1,0,0.1,0,0.2c0,0,0,0,0,0
		c0,0.1,0,0.1,0.1,0.2c0.7,1.5,5.7,4.6,5.7,4.6c0,0,0.1,0,0.2,0c0,0,0,0,0,0c0.4,0,1.3,0,2.4-0.1c0,0,0,0,0,0
		C18.7,40.4,19.1,40.3,19.4,40.3z"/>
	<g>
		<g>
			<path class="st14" d="M4.5,42.9c0.4,0.8,2.4,1.5,3.3,1.9c1.3,0.6,2.8,1.3,4.3,1.4c1.4,0.1,2.5-1,3.7-1.8c1.2-0.7,3.1-1.2,4-2.2
				c-1.2-1.5-2.3-2.8-3.3-4.4c-0.9-1.4-1.6-4.2-2.8-5.3c-1.6-1.4-3.4-1-5-0.1c-1.6,1-3.9,1.5-3.9,3.6c0,1.1,0.2,2.2,0.1,3.3
				C4.8,40.6,4.4,41.8,4.5,42.9z"/>
			<path class="st20" d="M8.6,32.6c-1.6,1-3.9,1.5-3.9,3.6c0,0.4,0,0.7,0,1.1c1,0.5,1.9,1.1,2.9,1.9c1.7,1.3,2.4,2.5,4.5,1.7
				c0.8-0.3,1.7-0.6,2.5-0.8c-0.6-2.6-1.2-5.1-1.4-7.6C11.8,31.3,10.1,31.7,8.6,32.6z"/>
			<path class="st11" d="M11.3,39.5c-4-2.9-6.5-4-6.5-4c0,0.2-0.1,0.4-0.1,0.5c0,0.4,0,0.7,0,1.1c1,0.5,1.9,1.1,2.9,1.9
				c1.7,1.3,2.4,2.5,4.5,1.7c0.8-0.3,1.7-0.6,2.5-0.8c-0.6-2.6-1.2-5.1-1.4-7.6c-0.1-0.1-0.2-0.1-0.3-0.2c0,0,0.9,5.3,0.9,5.7
				C13.9,37.9,11.8,39.9,11.3,39.5z"/>
			<path class="st21" d="M12.3,39.4c-0.5,0.4-1,0.8-1.5,1c0.1,1.9,0.4,3.8,0.4,5.7c0.3,0,0.5,0.1,0.7,0.1c1.4,0.1,2.5-1,3.7-1.8
				c1.2-0.7,3.1-1.2,4-2.2c-0.7-0.8-1.3-1.6-1.9-2.4c-1.2-0.4-2.3-1.1-3.5-1.6C13.6,38.6,12.8,38.9,12.3,39.4z"/>
			<path class="st14" d="M12.5,41.2c0.1-0.3,0.2-0.6,0.4-0.9c0.4-0.8,1.1-1.4,1.8-1.8c-0.1-0.1-0.3-0.1-0.4-0.2
				c-0.8,0.3-1.6,0.7-2,1.1c-0.5,0.4-1,0.8-1.5,1c0.1,1.9,0.4,3.8,0.4,5.7c0.3,0,0.5,0.1,0.7,0.1c0.1,0,0.2,0,0.3,0
				c-0.1-0.6-0.2-1.2-0.3-1.9c0-0.5,0-1,0.1-1.5C12.1,42.3,12.3,41.8,12.5,41.2z"/>
			<path class="st22" d="M4.5,42.9c0.4,0.8,2.4,1.5,3.3,1.9c1.3,0.6,2.8,1.3,4.2,1.4c-0.4-2-0.3-4.1-0.3-6.3
				c-0.1-0.1-0.2-0.3-0.4-0.4c0.3,0.3,0.2,0.2-0.3-0.1c-0.8-0.5-1.6-0.9-2.4-1.4c-0.6-0.4-1.3-0.9-1.9-1.3C6,36.4,5.4,36,4.8,35.6
				c0,0.2-0.1,0.3-0.1,0.5c0,1.1,0.2,2.2,0.1,3.3C4.8,40.6,4.4,41.8,4.5,42.9z"/>
		</g>
		<g>
			<path class="st7" d="M14.3,40.1c0.3,0,0.6-0.1,0.8-0.3c-0.1-0.1-0.3-0.1-0.4-0.1C14.7,39.7,14.5,39.9,14.3,40.1z"/>
			<path class="st8" d="M14.3,40.1L14.3,40.1c0.1,0.2,0.3,0.1,0.4,0.3c0.1-0.1,0.2-0.2,0.2-0.4c0.1-0.1,0.3-0.2,0.3-0.3
				c-0.1,0-0.2,0.1-0.2,0.1c-0.1,0-0.1,0.1-0.2,0.2C14.6,40.1,14.4,40.1,14.3,40.1z"/>
		</g>
		<g>
			<path class="st3" d="M12.9,43.4c0.2,0.1,0.4,0.3,0.6,0.1c0.1,0.1,0.2,0.2,0.3,0.4c0.2,0,0.4,0,0.6,0c-0.3-0.1-0.5-0.3-0.8-0.4
				C13.4,43.4,13.1,43.4,12.9,43.4L12.9,43.4z"/>
			<path class="st5" d="M12.9,43.5L12.9,43.5c0,0.1,0.2,0.2,0.4,0.3c0.1,0,0,0.1,0.1,0c0,0,0.1-0.1,0.1-0.1c0.1,0,0.1,0.1,0.2,0.2
				c0-0.1-0.2-0.2-0.2-0.4c0,0.1-0.1,0.1-0.1,0.2C13.2,43.7,13,43.6,12.9,43.5z"/>
		</g>
	</g>
	<g>
		<g>
			<path class="st1" d="M35.1,29.2c0,0,0,0.1,0,0.1h0.3C35.3,29.2,35.2,29.3,35.1,29.2z"/>
			<path class="st23" d="M29.9,41.3c1.3,0.5,2.5,1.1,3.4,2.3c0.1,0,0.2,0.1,0.3,0.1c0,0,0.1,0,0.1,0c1.3,0.2,2.5-0.6,3.6-1
				c0.4-0.1,0.8-0.2,1.1-0.3c0-0.2,0-0.5,0.1-0.7c0.1-0.8,0.4-2,0.3-2.8c-0.1-1.9-1.9-4.1-2.7-5.8c-0.5-1.1-1.4-2.6-1-3.7H35
				c-1.5,0.8-3.3,2-4.7,2.9c0.3,0.7-0.3,5-1,8.5C29.5,40.9,29.7,41.1,29.9,41.3z"/>
			<path class="st20" d="M30.3,41.4c1.1,0.4,2.1,1.1,2.9,2.2c0.1,0,0.2,0.1,0.3,0.1c0,0,0.1,0,0.1,0c1.3,0.2,2.5-0.6,3.6-1
				c0.4-0.1,0.8-0.2,1.1-0.3c0-0.2,0-0.5,0.1-0.7c0.1-0.8,0.4-2,0.3-2.8c-0.1-1.9-1.9-4.1-2.7-5.8c-0.5-1.1-1.4-2.6-1-3.7H35
				c-1,0.5-2.1,1.3-3.2,1.9c-0.1,2.2-0.5,4.3-0.3,6.5c0.1,1.2-0.2,2-0.9,2.7C30.6,40.7,30.4,41.1,30.3,41.4z"/>
			<path class="st16" d="M31,41.5c0,0.1,0,0.1-0.1,0.2c0.9,0.4,1.7,1,2.4,1.9c0.1,0,0.2,0.1,0.3,0.1c0,0,0.1,0,0.1,0
				c1.3,0.2,2.5-0.6,3.6-1c0.4-0.1,0.8-0.2,1.1-0.3c0-0.2,0-0.5,0.1-0.7c0.1-0.8,0.4-2,0.3-2.8c-0.1-1.9-1.9-4.1-2.7-5.8
				c-0.5-1.1-1.4-2.6-1-3.7l-0.2-0.2c-0.8,0.5-1.5,1.2-2.2,1.6c0,0.1,0.6,0.1,0.6,0.2c1,2.8,0.9,5.7-0.5,8.4
				C32.5,40.1,31.3,40.7,31,41.5z"/>
			<path class="st11" d="M33.8,40.7c-0.4,0.4-0.6,0.8-0.7,1.2c0.2,0.6,0.3,1.1,0.5,1.7c0,0,0,0,0.1,0c0,0,0.1,0,0.1,0
				c1.3,0.2,2.5-0.6,3.6-1c0.4-0.1,0.8-0.2,1.1-0.3c0-0.2,0-0.5,0.1-0.7c0.1-0.8,0.4-2,0.3-2.8c-0.1-1.9-1.9-4.1-2.7-5.8
				c-0.5-1.1-1.4-2.6-1-3.7L35,29.1c-0.4,3,0.5,6.1,0,9.1C34.8,39.1,34.5,40,33.8,40.7z"/>
			<path class="st4" d="M33.2,42c-0.2,0.5,0,1.1,0.2,1.6c0.1,0,0.1,0,0.2,0c0,0,0.1,0,0.1,0c1.3,0.2,2.5-0.6,3.6-1
				c1.2-0.4,2.5-0.5,3.7-0.7c0.7-0.1,1.4-0.3,2.1-0.4c0.5-0.4,1.1-0.7,1.6-1.1c-0.4-1.5-0.7-3-1.1-4.5c-0.3-1.6-0.5-3.1-0.9-4.7
				c-0.2-0.7-0.2-0.8-0.9-1c-0.9-0.2-1.8-0.3-2.7-0.5c-1.4-0.3-2.8-0.7-4.2-0.8c-0.1,1.1,0.5,2.5,0.5,3.7c0.1,1.4,0.1,2.9,0.2,4.4
				c0.1,1.3-0.3,2.1-1.1,3.2C34.2,40.9,33.5,41.4,33.2,42z"/>
			<path class="st5" d="M44.7,40.5c-0.4-1.5-0.7-3-1.1-4.5c-0.3-1.6-0.5-3.1-0.9-4.7c-0.1-0.3-0.1-0.5-0.2-0.6
				c0.6,3.3,1,6.6,1.5,9.9c0,0.1,0,0.2,0,0.3C44.3,40.8,44.5,40.6,44.7,40.5z"/>
			<path class="st9" d="M33.2,42c-0.2,0.5,0,1.1,0.2,1.6c0.1,0,0.1,0,0.2,0c0,0,0.1,0,0.1,0c0.3,0.1,0.6,0,0.9,0l0,0
				c0-2.9,1.4-2.4,1.7-5.2c0.2-2.3-2.2-8.3,0.4-8.2c0.7,0,5.4,0.8,6,1c-0.2-0.6-0.3-0.7-0.9-0.9c-0.9-0.2-1.8-0.3-2.7-0.5
				c-1.4-0.3-2.8-0.7-4.2-0.8c-0.1,1.1,0.5,2.5,0.5,3.7c0.1,1.4,0.1,2.9,0.2,4.4c0.1,1.3-0.3,2.1-1.1,3.2
				C34.2,40.9,33.5,41.4,33.2,42z"/>
		</g>
		<path class="st24" d="M41.3,36.9c0.1,0,0.3,0,0.5,0c-0.1-0.1-0.1-0.2-0.2-0.3c0,0,0,0,0,0c-0.1-0.3-0.2-0.4-0.3-0.7
			c-0.1,0.8-1.1,0.7-1.4,0.8C40.4,36.9,41.1,36.2,41.3,36.9z"/>
		<path class="st6" d="M41,36.9c0.1,0.1,0.2,0.2,0.3,0.2c0.1,0,0.4,0,0.4-0.1v0c-0.1,0-0.4,0-0.5-0.1c-0.2-0.1,0-0.3-0.3-0.3
			c-0.3,0-0.6,0.1-1,0.1C40.3,36.9,40.7,36.8,41,36.9z"/>
		<path class="st11" d="M38.5,38.2c-1-0.7-2.2-1.1-3.3-1.8l0.1,0.2C34.8,38.1,37.7,37.8,38.5,38.2z"/>
		<path class="st9" d="M36.4,38.5c0.8,0.1,1.2-0.1,2.1-0.1c-0.7-0.2-1.9-0.5-2.6-0.6C35.7,37.9,36.3,38.3,36.4,38.5z"/>
	</g>
</g>
</svg>
