<?xml version="1.0" encoding="utf-8"?>
<!-- Generator: Adobe Illustrator 28.0.0, SVG Export Plug-In . SVG Version: 6.00 Build 0)  -->
<svg version="1.1" id="Слой_1" xmlns="http://www.w3.org/2000/svg" xmlns:xlink="http://www.w3.org/1999/xlink" x="0px" y="0px"
	 viewBox="0 0 48 48" style="enable-background:new 0 0 48 48;" xml:space="preserve">
<style type="text/css">
	.st0{fill:#CDD0D9;}
	.st1{opacity:0.5;fill:#BBBDC7;}
	.st2{fill:#94736F;}
	.st3{opacity:0.5;}
	.st4{fill:#612F27;}
	.st5{opacity:0.8;fill:#94736F;}
	.st6{opacity:0.5;fill:#94736F;}
	.st7{fill:#A5A3AB;}
	.st8{fill:#FFFFFF;}
	.st9{opacity:0.5;fill:#A5A3AB;}
</style>
<g>
	<path id="XMLID_00000016074066113281471870000015257073470481953193_" class="st0" d="M42.3,1.2v28.1c0,9.9-18,18-18,18
		s-18-8.1-18-18V1.2c2.3,2.1,5.4,3.3,8.7,3.3c3.6,0,6.9-1.5,9.3-3.8c2.4,2.4,5.7,3.8,9.3,3.8C36.9,4.5,40,3.2,42.3,1.2z"/>
	<g>
		<path id="XMLID_00000095302953480926667470000004491478314601084545_" class="st0" d="M6.8,29.3V1.6C6.6,1.5,6.4,1.3,6.3,1.2v28.1
			c0,9.9,18,18,18,18s0.1,0,0.2-0.1C22.4,46.2,6.8,38.6,6.8,29.3z"/>
		<path id="XMLID_00000131348083017218963740000003904800036185308041_" class="st0" d="M34,4.5c3.1,0,6-1.1,8.2-2.9V1.2
			c-2.3,2-5.2,3.2-8.5,3.3C33.9,4.5,34,4.5,34,4.5z"/>
		<path id="XMLID_00000013184736370163635180000007195637426789958044_" class="st0" d="M15.5,4.5c3.5,0,6.7-1.4,9-3.6
			c-0.1-0.1-0.2-0.1-0.2-0.2c-2.3,2.3-5.5,3.7-9,3.8C15.3,4.5,15.4,4.5,15.5,4.5z"/>
	</g>
	<path id="XMLID_00000112624416760577221970000005030735744279564187_" class="st1" d="M42.3,1.2v28.1c0,9.9-18,18-18,18V0.7
		c2.4,2.4,5.7,3.8,9.3,3.8C36.9,4.5,40,3.2,42.3,1.2z"/>
	<path id="XMLID_00000168105597426412706270000009813637031337138065_" class="st0" d="M35.8,7.3v1.9H25.1v34.6
		c1.2-0.6,2.7-1.5,4.2-2.4c0.1-0.1,0.2-0.1,0.3-0.2c0.1-0.1,0.2-0.1,0.2-0.2c0.1-0.1,0.2-0.1,0.3-0.2c1.5-1,3-2.1,4.4-3.3
		c0.1-0.1,0.2-0.2,0.3-0.3c0.1-0.1,0.2-0.1,0.2-0.2c0.1-0.1,0.2-0.2,0.3-0.3c2.4-2.3,4.2-4.9,4.2-7.4v-23
		C38.4,6.8,37.1,7.1,35.8,7.3z"/>
	<path id="XMLID_00000075875309261655212420000003824865457257242026_" class="st2" d="M39.4,6.4v23c0,2.5-1.8,5.1-4.2,7.4
		c-0.1,0.1-0.2,0.2-0.3,0.3c-0.1,0.1-0.2,0.1-0.2,0.2c-0.1,0.1-0.2,0.2-0.3,0.3c-1.4,1.2-2.9,2.3-4.4,3.3c-0.1,0.1-0.2,0.1-0.3,0.2
		c-0.1,0.1-0.2,0.1-0.2,0.2c-0.1,0.1-0.2,0.1-0.3,0.2c-1.6,1-3.2,1.9-4.4,2.5c-0.1,0-0.2,0.1-0.3,0.1l0,0c0,0,0,0,0,0
		c-0.1,0-0.2-0.1-0.2-0.1c-0.1-0.1-0.2-0.1-0.3-0.2c-1.3-0.7-2.8-1.5-4.4-2.6c-0.1-0.1-0.2-0.1-0.3-0.2c-0.1-0.1-0.2-0.1-0.2-0.2
		c-0.1-0.1-0.2-0.1-0.3-0.2c-1.5-1-3.1-2.2-4.4-3.4c-0.1-0.1-0.2-0.2-0.3-0.3c-0.1-0.1-0.2-0.2-0.2-0.2c-0.1-0.1-0.2-0.2-0.3-0.3
		c-2.3-2.2-3.9-4.7-3.9-7.1v-23c1.2,0.5,2.5,0.8,3.9,1c0.1,0,0.2,0,0.3,0c0.1,0,0.2,0,0.2,0c0.1,0,0.2,0,0.3,0c0.3,0,0.7,0,1,0
		c1.1,0,2.3-0.1,3.4-0.4c0.1,0,0.2,0,0.3-0.1l0.2-0.1c0.1,0,0.2-0.1,0.3-0.1c1.6-0.4,3-1.1,4.4-2c0.1-0.1,0.2-0.1,0.3-0.2
		c0.1-0.1,0.2-0.1,0.2-0.2c0,0,0,0,0,0c0.1,0.1,0.2,0.1,0.3,0.2c1.4,0.9,2.8,1.6,4.4,2.1c0.1,0,0.2,0.1,0.3,0.1c0.1,0,0.2,0,0.2,0.1
		C29.7,7,29.8,7,29.9,7c1.2,0.3,2.4,0.4,3.7,0.4c0.2,0,0.5,0,0.7,0c0.1,0,0.2,0,0.3,0c0.1,0,0.2,0,0.2,0c0.1,0,0.2,0,0.3,0
		C36.6,7.2,38,6.9,39.4,6.4z"/>
	<g class="st3">
		<path id="XMLID_00000133514992505569090930000010311410676530158727_" class="st2" d="M13.6,7.4v29.5c-0.2-0.2-0.4-0.4-0.6-0.5
			V7.3C13.3,7.3,13.5,7.4,13.6,7.4z"/>
		<path id="XMLID_00000036212182560871239110000013921776207218985092_" class="st2" d="M18.9,6.9v34c-0.2-0.1-0.4-0.2-0.6-0.4V7.1
			C18.6,7,18.8,7,18.9,6.9z"/>
		<path id="XMLID_00000139256011055555735040000008186552043170828455_" class="st2" d="M24.2,4.5V44c-0.2-0.1-0.4-0.2-0.6-0.3V4.9
			C23.9,4.8,24.1,4.7,24.2,4.5z"/>
		<path id="XMLID_00000168082868691068842980000012936884678608546698_" class="st2" d="M29.5,6.9V41c-0.2,0.1-0.4,0.2-0.6,0.4V6.8
			C29.2,6.8,29.4,6.9,29.5,6.9z"/>
		<path id="XMLID_00000168100124789091668280000018031344375766702265_" class="st2" d="M34.8,7.4V37c-0.2,0.2-0.4,0.3-0.6,0.5V7.4
			C34.5,7.4,34.7,7.4,34.8,7.4z"/>
	</g>
	<g>
		<path id="XMLID_00000111184919709338775120000009926587941538677436_" class="st4" d="M14,7.4v29.8c-0.1-0.1-0.2-0.2-0.3-0.3
			c-0.1-0.1-0.2-0.2-0.2-0.2V7.3c0.1,0,0.2,0,0.2,0C13.8,7.4,13.9,7.4,14,7.4z"/>
		<path id="XMLID_00000121276490179972233860000016703579743584416428_" class="st4" d="M19.3,6.9v34.3c-0.1-0.1-0.2-0.1-0.3-0.2
			c-0.1-0.1-0.2-0.1-0.2-0.2V7l0.2-0.1C19.1,6.9,19.2,6.9,19.3,6.9z"/>
		<path id="XMLID_00000014609162526970808050000010840454128539260332_" class="st4" d="M24.6,4.7v39.2c-0.1,0-0.2,0.1-0.3,0.1l0,0
			c0,0,0,0,0,0c-0.1,0-0.2-0.1-0.2-0.1V4.7c0.1-0.1,0.2-0.1,0.2-0.2c0,0,0,0,0,0C24.4,4.6,24.5,4.6,24.6,4.7z"/>
		<path id="XMLID_00000124141545930453427380000004370134852823049652_" class="st4" d="M29.9,7v33.8c-0.1,0.1-0.2,0.1-0.3,0.2
			c-0.1,0.1-0.2,0.1-0.2,0.2V6.9c0.1,0,0.2,0,0.2,0.1C29.7,7,29.8,7,29.9,7z"/>
		<path id="XMLID_00000132782307273091233780000005090781533854977720_" class="st4" d="M35.2,7.3v29.3c-0.1,0.1-0.2,0.2-0.3,0.3
			c-0.1,0.1-0.2,0.1-0.2,0.2V7.4c0.1,0,0.2,0,0.2,0C35,7.4,35.1,7.4,35.2,7.3z"/>
	</g>
	<path id="XMLID_00000090291044100999090690000012699700738684455298_" class="st5" d="M14.7,9.1c3.5,0,6.8-1.1,9.6-3
		c2.8,2,6.1,3,9.6,3c1.9,0,3.7-0.3,5.5-0.9V6.3c-1.8,0.7-3.8,1.1-5.8,1.1c-3.4,0-6.6-1-9.3-2.9c-2.7,1.9-5.9,2.9-9.3,2.9
		c-2,0-4-0.4-5.8-1.1v1.8C11,8.8,12.8,9.1,14.7,9.1z"/>
	<path id="XMLID_00000157306040305419359140000005099769989673901202_" class="st6" d="M39.4,6.3v23c0,6-10.1,12.3-15.1,14.8l0,0
		V4.5c2.7,1.9,5.9,2.9,9.3,2.9C35.6,7.4,37.5,7.1,39.4,6.3z"/>
	<path id="XMLID_00000123430026439325589420000002290422991986719914_" class="st5" d="M33.3,23.9l2.2-0.6c0,0-2.4,4.3-6.2,4.8
		c-1,0.1-1.8,0-2.5-0.1c-0.5,5.3-2.4,9.2-2.4,9.2s-1.9-3.9-2.4-9.2c-0.7,0.2-1.5,0.3-2.5,0.1c-3.8-0.5-6.2-4.8-6.2-4.8l2.2,0.6
		c-2.8-1.4-3.4-5.2-3.4-5.2l2.9,1.3c-2.8-2-2.9-5.7-2.9-5.7s5.2,3,8.7,4.1c0.7,0.2,1.3,0.6,1.8,1c0.8-3.6,1.9-6.1,1.9-6.1
		s1.2,2.5,1.9,6.1c0.5-0.4,1.1-0.7,1.8-1c3.5-1.2,8.7-4.1,8.7-4.1s-0.2,3.7-2.9,5.7l2.9-1.3C36.7,18.7,36.1,22.5,33.3,23.9z"/>
	<path id="XMLID_00000172436932706976911300000015392884287851371141_" class="st0" d="M33.3,22.8l2.2-0.6c0,0-2.4,4.3-6.2,4.8
		c-1,0.1-1.8,0-2.5-0.1c-0.5,5.3-2.4,9.2-2.4,9.2s-1.9-3.9-2.4-9.2c-0.7,0.2-1.5,0.3-2.5,0.1c-3.8-0.5-6.2-4.8-6.2-4.8l2.2,0.6
		c-2.8-1.4-3.4-5.2-3.4-5.2l2.9,1.3c-2.8-2-2.9-5.7-2.9-5.7s5.2,3,8.7,4.1c0.7,0.2,1.3,0.6,1.8,1c0.8-3.6,1.9-6.1,1.9-6.1
		s1.2,2.5,1.9,6.1c0.5-0.4,1.1-0.7,1.8-1c3.5-1.2,8.7-4.1,8.7-4.1s-0.2,3.7-2.9,5.7l2.9-1.3C36.7,17.5,36.1,21.3,33.3,22.8z"/>
	<g>
		<path id="XMLID_00000016063683700685225440000008964487764561856680_" class="st0" d="M22.7,18.3c0.6-2.8,1.4-4.9,1.8-5.7
			c-0.1-0.2-0.2-0.4-0.2-0.4s-1.1,2.4-1.9,5.9C22.5,18.1,22.6,18.2,22.7,18.3z"/>
		<path id="XMLID_00000134950114661717337520000011686739459811923866_" class="st0" d="M26.6,18.3c0.5-0.4,1.1-0.7,1.8-1
			c3-1,7.1-3.3,8.3-3.9c0-0.1,0-0.2,0-0.2s-5.2,3-8.7,4.1c-0.6,0.2-1.1,0.5-1.5,0.8C26.5,18.1,26.5,18.2,26.6,18.3z"/>
		<path id="XMLID_00000109708507934242954600000001811929462888145811_" class="st0" d="M34.1,18.8l2.6-1.1c0-0.1,0-0.2,0-0.2
			l-2.2,1C34.4,18.6,34.2,18.7,34.1,18.8z"/>
		<path id="XMLID_00000163753546174706385000000007948604363030949816_" class="st0" d="M33.6,22.8l1.8-0.5c0-0.1,0.1-0.1,0.1-0.1
			l-1.5,0.4C33.8,22.7,33.7,22.7,33.6,22.8z"/>
		<path id="XMLID_00000018939912018079334250000007923898138539718803_" class="st0" d="M19.7,27c-3.5-0.4-5.8-4-6.2-4.7l-0.4-0.1
			c0,0,2.4,4.3,6.2,4.8c0.4,0,0.8,0.1,1.1,0.1C20.2,27,19.9,27,19.7,27z"/>
		<path id="XMLID_00000120552991028259837110000011332545531893166245_" class="st0" d="M27,26.8C27,26.9,27,26.9,27,26.8
			c0.4,0.2,0.9,0.2,1.4,0.2C27.9,27,27.4,27,27,26.8z"/>
		<path id="XMLID_00000154409142534923385180000013867569805248996496_" class="st0" d="M14.4,18.5l0.7,0.3
			c-2.4-1.8-2.8-4.7-2.9-5.5c-0.2-0.1-0.3-0.2-0.3-0.2S12,16.5,14.4,18.5z"/>
		<path id="XMLID_00000138542127998891546610000012580592253094729875_" class="st0" d="M22.2,26.8c-0.1,0-0.2,0.1-0.3,0.1
			c0.6,5.2,2.4,9.1,2.4,9.1s0.1-0.1,0.2-0.4C24,34.6,22.6,31.2,22.2,26.8z"/>
		<path id="XMLID_00000111168617092419258430000002031905220932166544_" class="st0" d="M15,22.6l0.6,0.2c-2.5-1.3-3.2-4.3-3.4-5.1
			l-0.3-0.2C11.9,17.5,12.4,21.1,15,22.6z"/>
	</g>
	<path id="XMLID_00000146473209664961630910000012338316945106995084_" class="st1" d="M33.3,22.8l2.2-0.6c0,0-2.4,4.3-6.2,4.8
		c-1,0.1-1.8,0-2.5-0.1c-0.5,5.3-2.4,9.2-2.4,9.2V12.2c0,0,1.2,2.5,1.9,6.1c0.5-0.4,1.1-0.7,1.8-1c3.5-1.2,8.7-4.1,8.7-4.1
		s-0.2,3.7-2.9,5.7l2.9-1.3C36.7,17.5,36.1,21.3,33.3,22.8z"/>
	<path id="XMLID_00000055698790749300954360000006667926952411828648_" class="st2" d="M30.9,22.6c0,0-2.4,0.9-5.6,1.1
		c-0.2,3.2-1.1,5.6-1.1,5.6s-0.9-2.4-1.1-5.6c-3.2-0.2-5.6-1.1-5.6-1.1s2.4-0.9,5.6-1.1c0.2-3.2,1.1-5.6,1.1-5.6s0.9,2.4,1.1,5.6
		C28.5,21.7,30.9,22.6,30.9,22.6z"/>
	<path id="XMLID_00000158717669096317582900000009180705473709386126_" class="st6" d="M30.9,22.6c0,0-2.4,0.9-5.6,1.1
		c-0.2,3.2-1.1,5.6-1.1,5.6V16c0,0,0.9,2.4,1.1,5.6C28.5,21.7,30.9,22.6,30.9,22.6z"/>
	<path id="XMLID_00000137108840606863420260000004624683082666235053_" class="st1" d="M28.3,22.6c0,2.2-1.8,4-4,4c-2.2,0-4-1.8-4-4
		c0-2.2,1.8-4,4-4C26.5,18.6,28.3,20.4,28.3,22.6z"/>
	<circle id="XMLID_00000093871711340191353460000000782369991733752496_" class="st0" cx="24.3" cy="22.6" r="3.5"/>
	<path id="XMLID_00000138540365888619410270000017440434483888082321_" class="st0" d="M20.9,22.6c0-1.9,1.5-3.5,3.5-3.5
		c0,0-0.1,0-0.1,0c-2,0-3.5,1.6-3.5,3.5c0,2,1.6,3.5,3.5,3.5c0,0,0.1,0,0.1,0C22.5,26.1,20.9,24.6,20.9,22.6z"/>
	<path id="XMLID_00000143585594375493271570000017083038398005283246_" class="st1" d="M27.8,22.6c0,2-1.6,3.5-3.5,3.5v-7.1
		C26.2,19.1,27.8,20.7,27.8,22.6z"/>
	<g>
		<path id="XMLID_00000013177029464334367900000010981283289922679991_" class="st7" d="M27,22.6c0,1.5-1.2,2.7-2.7,2.7
			c-1.5,0-2.7-1.2-2.7-2.7s1.2-2.7,2.7-2.7C25.8,19.9,27,21.1,27,22.6z"/>
		<path id="XMLID_00000158729867392481817830000013399782435981441950_" class="st8" d="M21.7,22.6c0-1.5,1.2-2.7,2.6-2.7
			c0,0-0.1,0-0.1,0c-1.5,0-2.7,1.2-2.7,2.7s1.2,2.7,2.7,2.7c0,0,0.1,0,0.1,0C22.9,25.3,21.7,24.1,21.7,22.6z"/>
		<path id="XMLID_00000023259947016722975840000011872412518159384511_" class="st9" d="M27,22.6c0,1.5-1.2,2.7-2.7,2.7v-5.5
			C25.8,19.9,27,21.1,27,22.6z"/>
		<path id="XMLID_00000152943062354122078500000009113339252040102545_" class="st8" d="M23.7,20.7c0.1,0.2,0,0.4-0.3,0.6
			c-0.3,0.2-0.6,0.2-0.7,0.1c-0.1-0.2,0-0.4,0.3-0.6C23.3,20.6,23.6,20.6,23.7,20.7z"/>
	</g>
</g>
</svg>
